<mxfile host="app.diagrams.net" modified="2020-07-01T10:34:59.220Z" agent="5.0 (Windows NT 10.0; Win64; x64) AppleWebKit/537.36 (KHTML, like Gecko) Chrome/78.0.3904.87 Safari/537.36" etag="IOCUlbBpP16F4Vd9h1zB" version="13.3.5" type="github" pages="4">
  <diagram id="0d7cefc2-ccd6-e077-73ed-a8e48b0cddf6" name="Login">
    <mxGraphModel dx="2207" dy="1326" grid="1" gridSize="10" guides="1" tooltips="1" connect="1" arrows="1" fold="1" page="1" pageScale="1" pageWidth="1169" pageHeight="827" background="#ffffff" math="0" shadow="0">
      <root>
        <mxCell id="0" />
        <mxCell id="1" parent="0" />
        <mxCell id="GfecAhy_sYFPlb2EepuG-113" value="CBS&amp;nbsp;" style="shape=mxgraph.ibm.box;prType=enterprise;fontStyle=0;verticalAlign=top;align=left;spacingLeft=32;spacingTop=4;fillColor=#CCFFFF;rounded=0;whiteSpace=wrap;html=1;strokeColor=#4376BB;strokeWidth=1;dashed=0;container=1;spacing=-4;collapsible=0;expand=0;recursiveResize=0;perimeterSpacing=0;shadow=0;" parent="1" vertex="1">
          <mxGeometry x="-1015" y="-50" width="730" height="650" as="geometry" />
        </mxCell>
        <mxCell id="GfecAhy_sYFPlb2EepuG-120" value="&lt;font color=&quot;#ffffff&quot;&gt;&lt;b&gt;External F5&lt;/b&gt;&lt;/font&gt;" style="rounded=0;whiteSpace=wrap;html=1;shadow=0;strokeColor=none;strokeWidth=1;fillColor=#FF3333;" parent="GfecAhy_sYFPlb2EepuG-113" vertex="1">
          <mxGeometry x="35" y="30" width="640" height="30" as="geometry" />
        </mxCell>
        <mxCell id="GfecAhy_sYFPlb2EepuG-200" style="edgeStyle=orthogonalEdgeStyle;rounded=0;orthogonalLoop=1;jettySize=auto;html=1;entryX=0.75;entryY=0;entryDx=0;entryDy=0;startArrow=none;startSize=4;endArrow=classic;endFill=1;endSize=4;strokeColor=#808080;strokeWidth=2;startFill=0;" parent="GfecAhy_sYFPlb2EepuG-113" source="GfecAhy_sYFPlb2EepuG-122" target="GfecAhy_sYFPlb2EepuG-126" edge="1">
          <mxGeometry relative="1" as="geometry">
            <Array as="points">
              <mxPoint x="600" y="280" />
              <mxPoint x="320" y="280" />
            </Array>
          </mxGeometry>
        </mxCell>
        <mxCell id="GfecAhy_sYFPlb2EepuG-122" value="&lt;b style=&quot;color: rgb(255 , 255 , 255)&quot;&gt;API Gateway - External&lt;/b&gt;" style="rounded=0;whiteSpace=wrap;html=1;shadow=0;strokeColor=none;strokeWidth=1;fillColor=#007EFF;" parent="GfecAhy_sYFPlb2EepuG-113" vertex="1">
          <mxGeometry x="550" y="110" width="120" height="60" as="geometry" />
        </mxCell>
        <mxCell id="GfecAhy_sYFPlb2EepuG-232" style="edgeStyle=orthogonalEdgeStyle;rounded=0;jumpStyle=gap;orthogonalLoop=1;jettySize=auto;html=1;entryX=0.75;entryY=0;entryDx=0;entryDy=0;startArrow=none;startFill=0;startSize=4;endArrow=classic;endFill=1;endSize=4;strokeColor=#808080;strokeWidth=2;" parent="GfecAhy_sYFPlb2EepuG-113" source="GfecAhy_sYFPlb2EepuG-123" target="GfecAhy_sYFPlb2EepuG-128" edge="1">
          <mxGeometry relative="1" as="geometry">
            <Array as="points">
              <mxPoint x="255" y="190" />
              <mxPoint x="580" y="190" />
            </Array>
          </mxGeometry>
        </mxCell>
        <mxCell id="GfecAhy_sYFPlb2EepuG-123" value="&lt;font color=&quot;#ffffff&quot;&gt;&lt;b&gt;Online Services - .Net&lt;/b&gt;&lt;/font&gt;" style="rounded=0;whiteSpace=wrap;html=1;shadow=0;strokeColor=none;strokeWidth=1;fillColor=#87BA6A;" parent="GfecAhy_sYFPlb2EepuG-113" vertex="1">
          <mxGeometry x="35" y="110" width="440" height="60" as="geometry" />
        </mxCell>
        <mxCell id="GfecAhy_sYFPlb2EepuG-197" style="edgeStyle=orthogonalEdgeStyle;rounded=0;orthogonalLoop=1;jettySize=auto;html=1;exitX=1;exitY=0.5;exitDx=0;exitDy=0;startArrow=none;startSize=4;endArrow=classic;endFill=1;endSize=4;strokeColor=#808080;strokeWidth=2;startFill=0;" parent="GfecAhy_sYFPlb2EepuG-113" source="GfecAhy_sYFPlb2EepuG-126" target="GfecAhy_sYFPlb2EepuG-128" edge="1">
          <mxGeometry relative="1" as="geometry">
            <Array as="points">
              <mxPoint x="430" y="401" />
              <mxPoint x="430" y="290" />
              <mxPoint x="540" y="290" />
            </Array>
          </mxGeometry>
        </mxCell>
        <mxCell id="GfecAhy_sYFPlb2EepuG-126" value="&lt;font color=&quot;#ffffff&quot;&gt;&lt;b&gt;Integration Services - .Net&lt;/b&gt;&lt;/font&gt;" style="rounded=0;whiteSpace=wrap;html=1;shadow=0;strokeColor=none;strokeWidth=1;fillColor=#87BA6A;" parent="GfecAhy_sYFPlb2EepuG-113" vertex="1">
          <mxGeometry x="50" y="371" width="360" height="60" as="geometry" />
        </mxCell>
        <mxCell id="GfecAhy_sYFPlb2EepuG-128" value="&lt;b style=&quot;color: rgb(255 , 255 , 255)&quot;&gt;IIB&lt;/b&gt;" style="rounded=0;whiteSpace=wrap;html=1;shadow=0;strokeColor=none;strokeWidth=1;fillColor=#007EFF;" parent="GfecAhy_sYFPlb2EepuG-113" vertex="1">
          <mxGeometry x="490" y="371" width="120" height="60" as="geometry" />
        </mxCell>
        <mxCell id="GfecAhy_sYFPlb2EepuG-129" value="&lt;font color=&quot;#ffffff&quot;&gt;&lt;b&gt;Internal F5&lt;/b&gt;&lt;/font&gt;" style="rounded=0;whiteSpace=wrap;html=1;shadow=0;strokeColor=none;strokeWidth=1;fillColor=#FF3333;" parent="GfecAhy_sYFPlb2EepuG-113" vertex="1">
          <mxGeometry x="50" y="310" width="620" height="20" as="geometry" />
        </mxCell>
        <mxCell id="GfecAhy_sYFPlb2EepuG-133" value="CBS Cloud" style="shape=mxgraph.ibm.box;prType=vpc;fontStyle=0;verticalAlign=top;align=left;spacingLeft=32;spacingTop=4;fillColor=none;rounded=0;whiteSpace=wrap;html=1;strokeColor=#3333FF;strokeWidth=1;dashed=1;container=1;spacing=-4;collapsible=0;expand=0;recursiveResize=0;" parent="GfecAhy_sYFPlb2EepuG-113" vertex="1">
          <mxGeometry x="280" y="493" width="350" height="106" as="geometry" />
        </mxCell>
        <mxCell id="GfecAhy_sYFPlb2EepuG-137" value="&lt;b style=&quot;color: rgb(255 , 255 , 255)&quot;&gt;Gemalto&lt;/b&gt;" style="rounded=0;whiteSpace=wrap;html=1;shadow=0;strokeColor=none;strokeWidth=1;fillColor=#007EFF;" parent="GfecAhy_sYFPlb2EepuG-133" vertex="1">
          <mxGeometry x="40" y="23" width="120" height="60" as="geometry" />
        </mxCell>
        <mxCell id="GfecAhy_sYFPlb2EepuG-138" value="" style="html=1;aspect=fixed;strokeColor=none;shadow=0;align=center;verticalAlign=top;fillColor=#B3B3B3;shape=mxgraph.gcp2.cloud_monitoring;dashed=1;" parent="GfecAhy_sYFPlb2EepuG-133" vertex="1">
          <mxGeometry x="200" y="20" width="53.55" height="59.5" as="geometry" />
        </mxCell>
        <mxCell id="GfecAhy_sYFPlb2EepuG-139" value="" style="html=1;aspect=fixed;strokeColor=none;shadow=0;align=center;verticalAlign=top;fillColor=#B3B3B3;shape=mxgraph.gcp2.cloud_monitoring;dashed=1;" parent="GfecAhy_sYFPlb2EepuG-133" vertex="1">
          <mxGeometry x="280" y="20" width="53.55" height="59.5" as="geometry" />
        </mxCell>
        <mxCell id="GfecAhy_sYFPlb2EepuG-140" value="&lt;font style=&quot;font-size: 10px&quot;&gt;CBSAD&lt;/font&gt;" style="text;html=1;strokeColor=none;fillColor=none;align=center;verticalAlign=middle;whiteSpace=wrap;rounded=0;shadow=0;dashed=1;" parent="GfecAhy_sYFPlb2EepuG-133" vertex="1">
          <mxGeometry x="205" y="80" width="40" height="20" as="geometry" />
        </mxCell>
        <mxCell id="GfecAhy_sYFPlb2EepuG-141" value="&lt;font style=&quot;font-size: 10px&quot;&gt;CBSAUDIT&lt;/font&gt;" style="text;html=1;strokeColor=none;fillColor=none;align=center;verticalAlign=middle;whiteSpace=wrap;rounded=0;shadow=0;dashed=1;" parent="GfecAhy_sYFPlb2EepuG-133" vertex="1">
          <mxGeometry x="286.78" y="80" width="40" height="20" as="geometry" />
        </mxCell>
        <mxCell id="Hfc7pU00i5XTXcZvkM-m-15" value="&lt;font color=&quot;#ffffff&quot;&gt;14&lt;/font&gt;" style="ellipse;whiteSpace=wrap;html=1;aspect=fixed;shadow=0;strokeColor=none;strokeWidth=1;fillColor=#33001A;" parent="GfecAhy_sYFPlb2EepuG-133" vertex="1">
          <mxGeometry x="180" y="7" width="20" height="20" as="geometry" />
        </mxCell>
        <mxCell id="GfecAhy_sYFPlb2EepuG-142" value="" style="html=1;aspect=fixed;strokeColor=none;shadow=0;align=center;verticalAlign=top;fillColor=#FFCC99;shape=mxgraph.gcp2.cloud_monitoring;dashed=1;" parent="GfecAhy_sYFPlb2EepuG-113" vertex="1">
          <mxGeometry x="104" y="500" width="70.2" height="78" as="geometry" />
        </mxCell>
        <mxCell id="GfecAhy_sYFPlb2EepuG-143" value="&lt;font style=&quot;font-size: 10px&quot;&gt;SUMMIT&lt;/font&gt;" style="text;html=1;strokeColor=none;fillColor=none;align=center;verticalAlign=middle;whiteSpace=wrap;rounded=0;shadow=0;dashed=1;" parent="GfecAhy_sYFPlb2EepuG-113" vertex="1">
          <mxGeometry x="119.09999999999997" y="578" width="40" height="20" as="geometry" />
        </mxCell>
        <mxCell id="GfecAhy_sYFPlb2EepuG-114" value="CBS Cloud" style="shape=mxgraph.ibm.box;prType=vpc;fontStyle=0;verticalAlign=top;align=left;spacingLeft=32;spacingTop=4;fillColor=none;rounded=0;whiteSpace=wrap;html=1;strokeColor=#3333FF;strokeWidth=1;dashed=1;container=1;spacing=-4;collapsible=0;expand=0;recursiveResize=0;" parent="GfecAhy_sYFPlb2EepuG-113" vertex="1">
          <mxGeometry x="35" y="203" width="515" height="60" as="geometry" />
        </mxCell>
        <mxCell id="GfecAhy_sYFPlb2EepuG-125" value="&lt;b style=&quot;color: rgb(255 , 255 , 255)&quot;&gt;API Gateway - Internal&lt;/b&gt;" style="rounded=0;whiteSpace=wrap;html=1;shadow=0;strokeColor=none;strokeWidth=1;fillColor=#007EFF;" parent="GfecAhy_sYFPlb2EepuG-114" vertex="1">
          <mxGeometry x="124.1" y="10" width="360.9" height="40" as="geometry" />
        </mxCell>
        <mxCell id="GfecAhy_sYFPlb2EepuG-184" value="" style="endArrow=none;startArrow=classic;html=1;entryX=0.618;entryY=1.015;entryDx=0;entryDy=0;entryPerimeter=0;rounded=0;endSize=4;startSize=4;strokeWidth=2;strokeColor=#808080;endFill=0;" parent="GfecAhy_sYFPlb2EepuG-113" edge="1">
          <mxGeometry width="50" height="50" relative="1" as="geometry">
            <mxPoint x="189" y="110" as="sourcePoint" />
            <mxPoint x="188.83999999999986" y="59.999999999999915" as="targetPoint" />
          </mxGeometry>
        </mxCell>
        <mxCell id="GfecAhy_sYFPlb2EepuG-185" value="" style="endArrow=none;startArrow=classic;html=1;entryX=0.618;entryY=1.015;entryDx=0;entryDy=0;entryPerimeter=0;rounded=0;endSize=4;startSize=4;strokeWidth=2;strokeColor=#808080;endFill=0;" parent="GfecAhy_sYFPlb2EepuG-113" edge="1">
          <mxGeometry width="50" height="50" relative="1" as="geometry">
            <mxPoint x="190" y="210" as="sourcePoint" />
            <mxPoint x="189.9999999999997" y="170" as="targetPoint" />
          </mxGeometry>
        </mxCell>
        <mxCell id="GfecAhy_sYFPlb2EepuG-188" value="" style="endArrow=none;startArrow=classic;html=1;entryX=0.25;entryY=1;entryDx=0;entryDy=0;rounded=0;endSize=4;startSize=4;strokeWidth=2;strokeColor=#808080;endFill=0;" parent="GfecAhy_sYFPlb2EepuG-113" source="GfecAhy_sYFPlb2EepuG-142" target="GfecAhy_sYFPlb2EepuG-126" edge="1">
          <mxGeometry width="50" height="50" relative="1" as="geometry">
            <mxPoint x="180" y="450" as="sourcePoint" />
            <mxPoint x="179.99999999999955" y="420" as="targetPoint" />
          </mxGeometry>
        </mxCell>
        <mxCell id="GfecAhy_sYFPlb2EepuG-189" value="" style="endArrow=none;startArrow=classic;html=1;rounded=0;endSize=4;startSize=4;strokeWidth=2;strokeColor=#808080;endFill=0;exitX=0.5;exitY=0;exitDx=0;exitDy=0;entryX=0.914;entryY=0.997;entryDx=0;entryDy=0;entryPerimeter=0;" parent="GfecAhy_sYFPlb2EepuG-113" source="GfecAhy_sYFPlb2EepuG-137" target="GfecAhy_sYFPlb2EepuG-126" edge="1">
          <mxGeometry width="50" height="50" relative="1" as="geometry">
            <mxPoint x="162.50420168067194" y="510" as="sourcePoint" />
            <mxPoint x="380" y="440" as="targetPoint" />
          </mxGeometry>
        </mxCell>
        <mxCell id="GfecAhy_sYFPlb2EepuG-190" value="" style="endArrow=none;startArrow=classic;html=1;rounded=0;endSize=4;startSize=4;strokeWidth=2;strokeColor=#808080;endFill=0;exitX=0.347;exitY=0.03;exitDx=0;exitDy=0;exitPerimeter=0;" parent="GfecAhy_sYFPlb2EepuG-113" source="GfecAhy_sYFPlb2EepuG-138" edge="1">
          <mxGeometry width="50" height="50" relative="1" as="geometry">
            <mxPoint x="390" y="513" as="sourcePoint" />
            <mxPoint x="395" y="430" as="targetPoint" />
          </mxGeometry>
        </mxCell>
        <mxCell id="GfecAhy_sYFPlb2EepuG-196" value="" style="endArrow=none;startArrow=classic;html=1;rounded=0;endSize=4;startSize=4;strokeWidth=2;strokeColor=#808080;endFill=0;entryX=0.5;entryY=1;entryDx=0;entryDy=0;" parent="GfecAhy_sYFPlb2EepuG-113" source="GfecAhy_sYFPlb2EepuG-139" target="GfecAhy_sYFPlb2EepuG-128" edge="1">
          <mxGeometry width="50" height="50" relative="1" as="geometry">
            <mxPoint x="586" y="500" as="sourcePoint" />
            <mxPoint x="586" y="430" as="targetPoint" />
          </mxGeometry>
        </mxCell>
        <mxCell id="GfecAhy_sYFPlb2EepuG-199" value="" style="endArrow=none;startArrow=classic;html=1;entryX=0.618;entryY=1.015;entryDx=0;entryDy=0;entryPerimeter=0;rounded=0;endSize=4;startSize=4;strokeWidth=2;strokeColor=#808080;endFill=0;" parent="GfecAhy_sYFPlb2EepuG-113" edge="1">
          <mxGeometry width="50" height="50" relative="1" as="geometry">
            <mxPoint x="590.1600000000001" y="110" as="sourcePoint" />
            <mxPoint x="589.9999999999998" y="60" as="targetPoint" />
          </mxGeometry>
        </mxCell>
        <mxCell id="GfecAhy_sYFPlb2EepuG-204" style="edgeStyle=orthogonalEdgeStyle;rounded=0;jumpStyle=gap;orthogonalLoop=1;jettySize=auto;html=1;entryX=0.25;entryY=0;entryDx=0;entryDy=0;startArrow=none;startFill=0;startSize=4;endArrow=none;endFill=0;endSize=4;strokeColor=#808080;strokeWidth=2;" parent="GfecAhy_sYFPlb2EepuG-113" target="GfecAhy_sYFPlb2EepuG-129" edge="1">
          <mxGeometry relative="1" as="geometry">
            <mxPoint x="205" y="253" as="sourcePoint" />
            <Array as="points">
              <mxPoint x="205" y="253" />
            </Array>
          </mxGeometry>
        </mxCell>
        <mxCell id="GfecAhy_sYFPlb2EepuG-205" value="" style="endArrow=none;startArrow=classic;html=1;entryX=0.618;entryY=1.015;entryDx=0;entryDy=0;entryPerimeter=0;rounded=0;endSize=4;startSize=4;strokeWidth=2;strokeColor=#808080;endFill=0;" parent="GfecAhy_sYFPlb2EepuG-113" edge="1">
          <mxGeometry width="50" height="50" relative="1" as="geometry">
            <mxPoint x="205" y="370" as="sourcePoint" />
            <mxPoint x="204.99999999999955" y="330" as="targetPoint" />
          </mxGeometry>
        </mxCell>
        <mxCell id="GfecAhy_sYFPlb2EepuG-222" value="&lt;font color=&quot;#ffffff&quot;&gt;1&lt;/font&gt;" style="ellipse;whiteSpace=wrap;html=1;aspect=fixed;shadow=0;strokeColor=none;strokeWidth=1;fillColor=#33001A;" parent="GfecAhy_sYFPlb2EepuG-113" vertex="1">
          <mxGeometry x="200" width="20" height="20" as="geometry" />
        </mxCell>
        <mxCell id="GfecAhy_sYFPlb2EepuG-224" value="&lt;font color=&quot;#ffffff&quot;&gt;2&lt;/font&gt;" style="ellipse;whiteSpace=wrap;html=1;aspect=fixed;shadow=0;strokeColor=none;strokeWidth=1;fillColor=#33001A;" parent="GfecAhy_sYFPlb2EepuG-113" vertex="1">
          <mxGeometry x="200" y="80" width="20" height="20" as="geometry" />
        </mxCell>
        <mxCell id="GfecAhy_sYFPlb2EepuG-225" value="&lt;font color=&quot;#ffffff&quot;&gt;5&lt;/font&gt;" style="ellipse;whiteSpace=wrap;html=1;aspect=fixed;shadow=0;strokeColor=none;strokeWidth=1;fillColor=#33001A;" parent="GfecAhy_sYFPlb2EepuG-113" vertex="1">
          <mxGeometry x="200" y="180" width="20" height="20" as="geometry" />
        </mxCell>
        <mxCell id="GfecAhy_sYFPlb2EepuG-226" value="&lt;font color=&quot;#ffffff&quot;&gt;6&lt;/font&gt;" style="ellipse;whiteSpace=wrap;html=1;aspect=fixed;shadow=0;strokeColor=none;strokeWidth=1;fillColor=#33001A;" parent="GfecAhy_sYFPlb2EepuG-113" vertex="1">
          <mxGeometry x="210" y="290" width="20" height="20" as="geometry" />
        </mxCell>
        <mxCell id="GfecAhy_sYFPlb2EepuG-227" value="&lt;font color=&quot;#ffffff&quot;&gt;7&lt;/font&gt;" style="ellipse;whiteSpace=wrap;html=1;aspect=fixed;shadow=0;strokeColor=none;strokeWidth=1;fillColor=#33001A;" parent="GfecAhy_sYFPlb2EepuG-113" vertex="1">
          <mxGeometry x="210" y="350" width="20" height="20" as="geometry" />
        </mxCell>
        <mxCell id="GfecAhy_sYFPlb2EepuG-228" value="&lt;font color=&quot;#ffffff&quot;&gt;8a&lt;/font&gt;" style="ellipse;whiteSpace=wrap;html=1;aspect=fixed;shadow=0;strokeColor=none;strokeWidth=1;fillColor=#33001A;" parent="GfecAhy_sYFPlb2EepuG-113" vertex="1">
          <mxGeometry x="150" y="454" width="20" height="20" as="geometry" />
        </mxCell>
        <mxCell id="GfecAhy_sYFPlb2EepuG-229" value="&lt;font color=&quot;#ffffff&quot;&gt;8b&lt;/font&gt;" style="ellipse;whiteSpace=wrap;html=1;aspect=fixed;shadow=0;strokeColor=none;strokeWidth=1;fillColor=#33001A;" parent="GfecAhy_sYFPlb2EepuG-113" vertex="1">
          <mxGeometry x="355" y="444" width="20" height="20" as="geometry" />
        </mxCell>
        <mxCell id="GfecAhy_sYFPlb2EepuG-230" value="&lt;font color=&quot;#ffffff&quot;&gt;8c&lt;/font&gt;" style="ellipse;whiteSpace=wrap;html=1;aspect=fixed;shadow=0;strokeColor=none;strokeWidth=1;fillColor=#33001A;" parent="GfecAhy_sYFPlb2EepuG-113" vertex="1">
          <mxGeometry x="470" y="473" width="20" height="20" as="geometry" />
        </mxCell>
        <mxCell id="GfecAhy_sYFPlb2EepuG-231" value="&lt;font color=&quot;#ffffff&quot;&gt;8d&lt;/font&gt;" style="ellipse;whiteSpace=wrap;html=1;aspect=fixed;shadow=0;strokeColor=none;strokeWidth=1;fillColor=#33001A;" parent="GfecAhy_sYFPlb2EepuG-113" vertex="1">
          <mxGeometry x="655" y="428" width="20" height="20" as="geometry" />
        </mxCell>
        <mxCell id="GfecAhy_sYFPlb2EepuG-233" value="&lt;font color=&quot;#ffffff&quot;&gt;3&lt;/font&gt;" style="ellipse;whiteSpace=wrap;html=1;aspect=fixed;shadow=0;strokeColor=none;strokeWidth=1;fillColor=#33001A;" parent="GfecAhy_sYFPlb2EepuG-113" vertex="1">
          <mxGeometry x="590" y="290" width="20" height="20" as="geometry" />
        </mxCell>
        <mxCell id="GfecAhy_sYFPlb2EepuG-234" value="&lt;font color=&quot;#ffffff&quot;&gt;4&lt;/font&gt;" style="ellipse;whiteSpace=wrap;html=1;aspect=fixed;shadow=0;strokeColor=none;strokeWidth=1;fillColor=#33001A;" parent="GfecAhy_sYFPlb2EepuG-113" vertex="1">
          <mxGeometry x="590" y="350" width="20" height="20" as="geometry" />
        </mxCell>
        <mxCell id="GfecAhy_sYFPlb2EepuG-237" value="&lt;font color=&quot;#ffffff&quot;&gt;8g&lt;/font&gt;" style="ellipse;whiteSpace=wrap;html=1;aspect=fixed;shadow=0;strokeColor=none;strokeWidth=1;fillColor=#33001A;" parent="GfecAhy_sYFPlb2EepuG-113" vertex="1">
          <mxGeometry x="510" y="350" width="20" height="20" as="geometry" />
        </mxCell>
        <mxCell id="GfecAhy_sYFPlb2EepuG-238" value="&lt;font color=&quot;#ffffff&quot;&gt;10&lt;/font&gt;" style="ellipse;whiteSpace=wrap;html=1;aspect=fixed;shadow=0;strokeColor=none;strokeWidth=1;fillColor=#33001A;" parent="GfecAhy_sYFPlb2EepuG-113" vertex="1">
          <mxGeometry x="600" width="20" height="20" as="geometry" />
        </mxCell>
        <mxCell id="GfecAhy_sYFPlb2EepuG-239" value="&lt;font color=&quot;#ffffff&quot;&gt;11&lt;/font&gt;" style="ellipse;whiteSpace=wrap;html=1;aspect=fixed;shadow=0;strokeColor=none;strokeWidth=1;fillColor=#33001A;" parent="GfecAhy_sYFPlb2EepuG-113" vertex="1">
          <mxGeometry x="600" y="80" width="20" height="20" as="geometry" />
        </mxCell>
        <mxCell id="GfecAhy_sYFPlb2EepuG-240" value="&lt;font color=&quot;#ffffff&quot;&gt;12&lt;/font&gt;" style="ellipse;whiteSpace=wrap;html=1;aspect=fixed;shadow=0;strokeColor=none;strokeWidth=1;fillColor=#33001A;" parent="GfecAhy_sYFPlb2EepuG-113" vertex="1">
          <mxGeometry x="330" y="350" width="20" height="20" as="geometry" />
        </mxCell>
        <mxCell id="Hfc7pU00i5XTXcZvkM-m-13" value="&lt;font color=&quot;#ffffff&quot;&gt;13&lt;/font&gt;" style="ellipse;whiteSpace=wrap;html=1;aspect=fixed;shadow=0;strokeColor=none;strokeWidth=1;fillColor=#33001A;" parent="GfecAhy_sYFPlb2EepuG-113" vertex="1">
          <mxGeometry x="355" y="473" width="20" height="20" as="geometry" />
        </mxCell>
        <mxCell id="GfecAhy_sYFPlb2EepuG-145" value="Cloud" style="shape=mxgraph.ibm.box;prType=vpc;fontStyle=0;verticalAlign=top;align=left;spacingLeft=32;spacingTop=4;fillColor=none;rounded=0;whiteSpace=wrap;html=1;strokeColor=#4376BB;strokeWidth=2;dashed=0;container=1;spacing=-4;collapsible=0;expand=0;recursiveResize=0;shadow=0;" parent="1" vertex="1">
          <mxGeometry x="-115" y="175" width="290" height="215" as="geometry" />
        </mxCell>
        <mxCell id="GfecAhy_sYFPlb2EepuG-147" value="&lt;font color=&quot;#ffffff&quot;&gt;&lt;b&gt;Adobe DTM&lt;/b&gt;&lt;/font&gt;" style="rounded=0;whiteSpace=wrap;html=1;shadow=0;strokeColor=none;strokeWidth=1;fillColor=#007EFF;" parent="GfecAhy_sYFPlb2EepuG-145" vertex="1">
          <mxGeometry x="190" y="37" width="90" height="60" as="geometry" />
        </mxCell>
        <mxCell id="GfecAhy_sYFPlb2EepuG-148" value="&lt;b style=&quot;color: rgb(255 , 255 , 255)&quot;&gt;Netsize&lt;/b&gt;" style="rounded=0;whiteSpace=wrap;html=1;shadow=0;strokeColor=none;strokeWidth=1;fillColor=#612744;" parent="GfecAhy_sYFPlb2EepuG-145" vertex="1">
          <mxGeometry x="30" y="37" width="100" height="60" as="geometry" />
        </mxCell>
        <mxCell id="GfecAhy_sYFPlb2EepuG-149" value="&lt;b style=&quot;color: rgb(255 , 255 , 255)&quot;&gt;FPP&lt;/b&gt;" style="rounded=0;whiteSpace=wrap;html=1;shadow=0;strokeColor=none;strokeWidth=1;fillColor=#612744;" parent="GfecAhy_sYFPlb2EepuG-145" vertex="1">
          <mxGeometry x="30" y="125" width="100" height="60" as="geometry" />
        </mxCell>
        <mxCell id="GfecAhy_sYFPlb2EepuG-146" value="&lt;b style=&quot;color: rgb(255 , 255 , 255)&quot;&gt;Force Point&lt;/b&gt;" style="rounded=0;whiteSpace=wrap;html=1;shadow=0;strokeColor=none;strokeWidth=1;fillColor=#87BA6A;" parent="1" vertex="1">
          <mxGeometry x="-321" y="370" width="75" height="60" as="geometry" />
        </mxCell>
        <mxCell id="GfecAhy_sYFPlb2EepuG-157" value="&lt;b&gt;&lt;font color=&quot;#000099&quot;&gt;Customer&lt;/font&gt;&lt;/b&gt;" style="rounded=0;whiteSpace=wrap;html=1;shadow=0;strokeColor=#000099;strokeWidth=1;fillColor=none;" parent="1" vertex="1">
          <mxGeometry x="-885" y="-120" width="120" height="40" as="geometry" />
        </mxCell>
        <mxCell id="GfecAhy_sYFPlb2EepuG-165" value="" style="endArrow=none;startArrow=classic;html=1;entryX=0.618;entryY=1.015;entryDx=0;entryDy=0;entryPerimeter=0;exitX=0.263;exitY=-0.06;exitDx=0;exitDy=0;exitPerimeter=0;rounded=0;endSize=4;startSize=4;strokeWidth=2;strokeColor=#808080;endFill=0;" parent="1" edge="1">
          <mxGeometry width="50" height="50" relative="1" as="geometry">
            <mxPoint x="-823.6799999999998" y="-21.799999999999955" as="sourcePoint" />
            <mxPoint x="-822.8400000000001" y="-79.40000000000009" as="targetPoint" />
          </mxGeometry>
        </mxCell>
        <mxCell id="GfecAhy_sYFPlb2EepuG-194" value="" style="endArrow=none;startArrow=classic;html=1;entryX=1;entryY=0.5;entryDx=0;entryDy=0;rounded=0;endSize=4;startSize=4;strokeWidth=2;strokeColor=#808080;endFill=0;exitX=0;exitY=0.5;exitDx=0;exitDy=0;" parent="1" source="GfecAhy_sYFPlb2EepuG-149" target="GfecAhy_sYFPlb2EepuG-146" edge="1">
          <mxGeometry width="50" height="50" relative="1" as="geometry">
            <mxPoint x="-865.6050420168067" y="460" as="sourcePoint" />
            <mxPoint x="-865" y="380" as="targetPoint" />
          </mxGeometry>
        </mxCell>
        <mxCell id="GfecAhy_sYFPlb2EepuG-195" value="" style="endArrow=none;startArrow=classic;html=1;entryX=1;entryY=0.5;entryDx=0;entryDy=0;rounded=0;endSize=4;startSize=4;strokeWidth=2;strokeColor=#808080;endFill=0;exitX=0;exitY=0.5;exitDx=0;exitDy=0;" parent="1" source="GfecAhy_sYFPlb2EepuG-148" target="GfecAhy_sYFPlb2EepuG-146" edge="1">
          <mxGeometry width="50" height="50" relative="1" as="geometry">
            <mxPoint x="-75" y="340" as="sourcePoint" />
            <mxPoint x="-236" y="400" as="targetPoint" />
          </mxGeometry>
        </mxCell>
        <mxCell id="GfecAhy_sYFPlb2EepuG-198" style="edgeStyle=orthogonalEdgeStyle;rounded=0;orthogonalLoop=1;jettySize=auto;html=1;startArrow=none;startSize=4;endArrow=classic;endFill=1;endSize=4;strokeColor=#808080;strokeWidth=2;startFill=0;exitX=0.5;exitY=0;exitDx=0;exitDy=0;" parent="1" source="GfecAhy_sYFPlb2EepuG-148" edge="1">
          <mxGeometry relative="1" as="geometry">
            <mxPoint x="-425" y="-23" as="targetPoint" />
            <Array as="points">
              <mxPoint x="-35" y="-100" />
              <mxPoint x="-425" y="-100" />
            </Array>
            <mxPoint x="-70" y="212" as="sourcePoint" />
          </mxGeometry>
        </mxCell>
        <mxCell id="GfecAhy_sYFPlb2EepuG-207" value="Legends" style="fontStyle=1;verticalAlign=top;align=center;spacingTop=-2;fillColor=none;rounded=0;whiteSpace=wrap;html=1;strokeColor=#4376BB;strokeWidth=1;dashed=0;container=1;collapsible=0;expand=0;recursiveResize=0;shadow=0;" parent="1" vertex="1">
          <mxGeometry x="-135" y="530" width="245" height="240" as="geometry" />
        </mxCell>
        <mxCell id="GfecAhy_sYFPlb2EepuG-208" value="" style="rounded=0;whiteSpace=wrap;html=1;shadow=0;strokeColor=none;strokeWidth=1;fillColor=#FF3333;" parent="GfecAhy_sYFPlb2EepuG-207" vertex="1">
          <mxGeometry x="15" y="35" width="35" height="20" as="geometry" />
        </mxCell>
        <mxCell id="GfecAhy_sYFPlb2EepuG-209" value="&lt;font style=&quot;font-size: 12px;&quot;&gt;Networks - Carl Samual&lt;/font&gt;" style="text;html=1;strokeColor=none;fillColor=none;align=left;verticalAlign=middle;whiteSpace=wrap;rounded=0;shadow=0;dashed=1;fontSize=12;fontStyle=1" parent="GfecAhy_sYFPlb2EepuG-207" vertex="1">
          <mxGeometry x="60" y="35" width="160" height="20" as="geometry" />
        </mxCell>
        <mxCell id="GfecAhy_sYFPlb2EepuG-211" value="" style="rounded=0;whiteSpace=wrap;html=1;shadow=0;strokeColor=none;strokeWidth=1;fillColor=#007EFF;" parent="GfecAhy_sYFPlb2EepuG-207" vertex="1">
          <mxGeometry x="15" y="64" width="35" height="20" as="geometry" />
        </mxCell>
        <mxCell id="GfecAhy_sYFPlb2EepuG-212" value="&lt;font style=&quot;font-size: 12px;&quot;&gt;Middleware - Richard Walton&lt;/font&gt;" style="text;html=1;strokeColor=none;fillColor=none;align=left;verticalAlign=middle;whiteSpace=wrap;rounded=0;shadow=0;dashed=1;fontStyle=1;fontSize=12;" parent="GfecAhy_sYFPlb2EepuG-207" vertex="1">
          <mxGeometry x="60" y="64" width="170" height="20" as="geometry" />
        </mxCell>
        <mxCell id="GfecAhy_sYFPlb2EepuG-213" value="" style="rounded=0;whiteSpace=wrap;html=1;shadow=0;strokeColor=none;strokeWidth=1;fillColor=#87BA6A;" parent="GfecAhy_sYFPlb2EepuG-207" vertex="1">
          <mxGeometry x="15" y="95" width="35" height="20" as="geometry" />
        </mxCell>
        <mxCell id="GfecAhy_sYFPlb2EepuG-214" value="&lt;font style=&quot;font-size: 12px;&quot;&gt;App Support - Chris Dowds&lt;/font&gt;" style="text;html=1;strokeColor=none;fillColor=none;align=left;verticalAlign=middle;whiteSpace=wrap;rounded=0;shadow=0;dashed=1;fontStyle=1;fontSize=12;" parent="GfecAhy_sYFPlb2EepuG-207" vertex="1">
          <mxGeometry x="60" y="95" width="160" height="20" as="geometry" />
        </mxCell>
        <mxCell id="GfecAhy_sYFPlb2EepuG-216" value="" style="whiteSpace=wrap;html=1;shadow=0;strokeColor=none;fillColor=#FFCC99;dashed=1;verticalAlign=top;" parent="GfecAhy_sYFPlb2EepuG-207" vertex="1">
          <mxGeometry x="15" y="126" width="35" height="20" as="geometry" />
        </mxCell>
        <mxCell id="GfecAhy_sYFPlb2EepuG-217" value="&lt;font style=&quot;font-size: 12px;&quot;&gt;Development - Sophie Tudor&lt;/font&gt;" style="text;html=1;strokeColor=none;fillColor=none;align=left;verticalAlign=middle;whiteSpace=wrap;rounded=0;shadow=0;dashed=1;fontStyle=1;fontSize=12;" parent="GfecAhy_sYFPlb2EepuG-207" vertex="1">
          <mxGeometry x="60" y="126" width="170" height="20" as="geometry" />
        </mxCell>
        <mxCell id="GfecAhy_sYFPlb2EepuG-218" value="" style="whiteSpace=wrap;html=1;shadow=0;strokeColor=none;fillColor=#B3B3B3;dashed=1;verticalAlign=top;" parent="GfecAhy_sYFPlb2EepuG-207" vertex="1">
          <mxGeometry x="15" y="156" width="35" height="20" as="geometry" />
        </mxCell>
        <mxCell id="GfecAhy_sYFPlb2EepuG-219" value="&lt;font style=&quot;font-size: 12px&quot;&gt;Linux &amp;amp; DB Support - Chris Raward&lt;/font&gt;" style="text;html=1;strokeColor=none;fillColor=none;align=left;verticalAlign=middle;whiteSpace=wrap;rounded=0;shadow=0;dashed=1;fontSize=12;fontStyle=1" parent="GfecAhy_sYFPlb2EepuG-207" vertex="1">
          <mxGeometry x="60" y="156" width="180" height="20" as="geometry" />
        </mxCell>
        <mxCell id="GfecAhy_sYFPlb2EepuG-220" value="" style="whiteSpace=wrap;html=1;shadow=0;strokeColor=none;fillColor=#612744;verticalAlign=middle;rounded=0;strokeWidth=1;" parent="GfecAhy_sYFPlb2EepuG-207" vertex="1">
          <mxGeometry x="15" y="186" width="35" height="20" as="geometry" />
        </mxCell>
        <mxCell id="GfecAhy_sYFPlb2EepuG-221" value="&lt;font style=&quot;font-size: 12px;&quot;&gt;External provider&lt;/font&gt;" style="text;html=1;strokeColor=none;fillColor=none;align=left;verticalAlign=middle;whiteSpace=wrap;rounded=0;shadow=0;dashed=1;fontSize=12;fontStyle=1" parent="GfecAhy_sYFPlb2EepuG-207" vertex="1">
          <mxGeometry x="60" y="186" width="170" height="20" as="geometry" />
        </mxCell>
        <mxCell id="GfecAhy_sYFPlb2EepuG-235" value="&lt;font color=&quot;#ffffff&quot;&gt;8e&lt;/font&gt;" style="ellipse;whiteSpace=wrap;html=1;aspect=fixed;shadow=0;strokeColor=none;strokeWidth=1;fillColor=#33001A;" parent="1" vertex="1">
          <mxGeometry x="-145" y="250" width="20" height="20" as="geometry" />
        </mxCell>
        <mxCell id="GfecAhy_sYFPlb2EepuG-236" value="&lt;font color=&quot;#ffffff&quot;&gt;8f&lt;/font&gt;" style="ellipse;whiteSpace=wrap;html=1;aspect=fixed;shadow=0;strokeColor=none;strokeWidth=1;fillColor=#33001A;" parent="1" vertex="1">
          <mxGeometry x="-139" y="353" width="20" height="20" as="geometry" />
        </mxCell>
        <mxCell id="GfecAhy_sYFPlb2EepuG-241" value="" style="rounded=1;whiteSpace=wrap;html=1;shadow=0;strokeColor=none;strokeWidth=1;fillColor=none;" parent="1" vertex="1">
          <mxGeometry x="-1150" y="-60" width="80" height="660" as="geometry" />
        </mxCell>
        <mxCell id="GfecAhy_sYFPlb2EepuG-242" value="" style="rounded=0;whiteSpace=wrap;html=1;shadow=0;strokeColor=none;strokeWidth=1;fillColor=none;" parent="1" vertex="1">
          <mxGeometry x="-1050" y="-290" width="700" height="70" as="geometry" />
        </mxCell>
        <mxCell id="GfecAhy_sYFPlb2EepuG-243" value="" style="rounded=1;whiteSpace=wrap;html=1;shadow=0;strokeColor=none;strokeWidth=1;fillColor=none;" parent="1" vertex="1">
          <mxGeometry x="-230" y="780" width="340" height="60" as="geometry" />
        </mxCell>
        <mxCell id="GfecAhy_sYFPlb2EepuG-245" value="" style="rounded=1;whiteSpace=wrap;html=1;shadow=0;strokeColor=none;strokeWidth=1;fillColor=none;" parent="1" vertex="1">
          <mxGeometry x="190" y="190" width="120" height="230" as="geometry" />
        </mxCell>
        <mxCell id="Hfc7pU00i5XTXcZvkM-m-1" style="edgeStyle=orthogonalEdgeStyle;rounded=0;orthogonalLoop=1;jettySize=auto;html=1;endArrow=none;endFill=0;dashed=1;jumpStyle=gap;entryX=1;entryY=0.5;entryDx=0;entryDy=0;entryPerimeter=0;" parent="1" target="Hfc7pU00i5XTXcZvkM-m-2" edge="1">
          <mxGeometry relative="1" as="geometry">
            <mxPoint y="212" as="sourcePoint" />
            <mxPoint x="-780" y="-140" as="targetPoint" />
            <Array as="points">
              <mxPoint y="212" />
              <mxPoint y="-171" />
            </Array>
          </mxGeometry>
        </mxCell>
        <mxCell id="Hfc7pU00i5XTXcZvkM-m-2" value="&lt;b&gt;OTP&lt;/b&gt;" style="verticalLabelPosition=bottom;html=1;verticalAlign=top;align=center;strokeColor=none;fillColor=#00BEF2;shape=mxgraph.azure.mobile;pointerEvents=1;" parent="1" vertex="1">
          <mxGeometry x="-450" y="-196" width="35" height="50" as="geometry" />
        </mxCell>
        <mxCell id="Hfc7pU00i5XTXcZvkM-m-4" style="edgeStyle=orthogonalEdgeStyle;rounded=0;orthogonalLoop=1;jettySize=auto;html=1;exitX=0;exitY=0.5;exitDx=0;exitDy=0;endArrow=none;endFill=0;dashed=1;jumpStyle=gap;entryX=0.75;entryY=0;entryDx=0;entryDy=0;exitPerimeter=0;" parent="1" source="Hfc7pU00i5XTXcZvkM-m-2" target="GfecAhy_sYFPlb2EepuG-157" edge="1">
          <mxGeometry relative="1" as="geometry">
            <mxPoint x="-25" y="222" as="sourcePoint" />
            <mxPoint x="-405" y="-161" as="targetPoint" />
            <Array as="points">
              <mxPoint x="-795" y="-171" />
            </Array>
          </mxGeometry>
        </mxCell>
        <mxCell id="Hfc7pU00i5XTXcZvkM-m-5" value="&lt;font color=&quot;#ffffff&quot;&gt;9&lt;/font&gt;" style="ellipse;whiteSpace=wrap;html=1;aspect=fixed;shadow=0;strokeColor=none;strokeWidth=1;fillColor=#33001A;" parent="1" vertex="1">
          <mxGeometry x="-390" y="-166" width="20" height="20" as="geometry" />
        </mxCell>
        <mxCell id="Hfc7pU00i5XTXcZvkM-m-6" style="edgeStyle=orthogonalEdgeStyle;rounded=0;jumpStyle=gap;orthogonalLoop=1;jettySize=auto;html=1;entryX=0;entryY=0.5;entryDx=0;entryDy=0;endArrow=classic;endFill=1;strokeColor=#808080;strokeWidth=2;endSize=4;startArrow=none;startSize=4;startFill=0;" parent="1" target="GfecAhy_sYFPlb2EepuG-146" edge="1">
          <mxGeometry relative="1" as="geometry">
            <mxPoint x="-620" y="380" as="sourcePoint" />
            <Array as="points">
              <mxPoint x="-620" y="380" />
              <mxPoint x="-620" y="400" />
            </Array>
          </mxGeometry>
        </mxCell>
        <mxCell id="Hfc7pU00i5XTXcZvkM-m-12" value="&lt;b&gt;&lt;font style=&quot;font-size: 14px&quot; color=&quot;#4a1e34&quot;&gt;Registration , Migration , Login , Reset Password ,&amp;nbsp; Auth in OLS , Payment&amp;nbsp;&amp;nbsp;&lt;/font&gt;&lt;/b&gt;" style="text;html=1;strokeColor=none;fillColor=none;align=center;verticalAlign=middle;whiteSpace=wrap;rounded=0;" parent="1" vertex="1">
          <mxGeometry x="-897" y="-250" width="547" height="20" as="geometry" />
        </mxCell>
        <mxCell id="QFSIBqLcEYJ9tONZ-Izn-1" style="edgeStyle=orthogonalEdgeStyle;rounded=0;orthogonalLoop=1;jettySize=auto;html=1;exitX=0;exitY=0.25;exitDx=0;exitDy=0;endArrow=none;endFill=0;dashed=1;jumpStyle=gap;entryX=1;entryY=0.5;entryDx=0;entryDy=0;" parent="1" source="GfecAhy_sYFPlb2EepuG-149" target="GfecAhy_sYFPlb2EepuG-157" edge="1">
          <mxGeometry relative="1" as="geometry">
            <mxPoint x="-440" y="-161" as="sourcePoint" />
            <mxPoint x="-785" y="-110" as="targetPoint" />
            <Array as="points">
              <mxPoint x="-160" y="315" />
              <mxPoint x="-160" y="-120" />
              <mxPoint x="-730" y="-120" />
              <mxPoint x="-730" y="-100" />
            </Array>
          </mxGeometry>
        </mxCell>
        <mxCell id="QFSIBqLcEYJ9tONZ-Izn-2" value="&lt;span style=&quot;font-size: 11.0pt ; font-family: &amp;#34;calibri&amp;#34; , sans-serif ; color: #1f497d&quot;&gt;behavioSec&amp;nbsp;&lt;/span&gt;" style="edgeLabel;html=1;align=center;verticalAlign=middle;resizable=0;points=[];" parent="QFSIBqLcEYJ9tONZ-Izn-1" vertex="1" connectable="0">
          <mxGeometry x="0.6641" y="-2" relative="1" as="geometry">
            <mxPoint as="offset" />
          </mxGeometry>
        </mxCell>
      </root>
    </mxGraphModel>
  </diagram>
  <diagram id="dfyX95s0yfnpwNUcH5Fu" name="Retrieve User Name">
    <mxGraphModel dx="2978" dy="1648" grid="1" gridSize="10" guides="1" tooltips="1" connect="1" arrows="1" fold="1" page="1" pageScale="1" pageWidth="850" pageHeight="1100" math="0" shadow="0">
      <root>
        <mxCell id="F4fyEYWxjTzVGHHiyolC-0" />
        <mxCell id="F4fyEYWxjTzVGHHiyolC-1" parent="F4fyEYWxjTzVGHHiyolC-0" />
        <mxCell id="F4fyEYWxjTzVGHHiyolC-2" value="CBS&amp;nbsp;" style="shape=mxgraph.ibm.box;prType=enterprise;fontStyle=0;verticalAlign=top;align=left;spacingLeft=32;spacingTop=4;fillColor=#CCFFFF;rounded=0;whiteSpace=wrap;html=1;strokeColor=#4376BB;strokeWidth=1;dashed=0;container=1;spacing=-4;collapsible=0;expand=0;recursiveResize=0;perimeterSpacing=0;shadow=0;" parent="F4fyEYWxjTzVGHHiyolC-1" vertex="1">
          <mxGeometry x="-1015" y="-50" width="730" height="650" as="geometry" />
        </mxCell>
        <mxCell id="F4fyEYWxjTzVGHHiyolC-3" value="&lt;font color=&quot;#ffffff&quot;&gt;&lt;b&gt;External F5&lt;/b&gt;&lt;/font&gt;" style="rounded=0;whiteSpace=wrap;html=1;shadow=0;strokeColor=none;strokeWidth=1;fillColor=#FF3333;" parent="F4fyEYWxjTzVGHHiyolC-2" vertex="1">
          <mxGeometry x="35" y="30" width="640" height="30" as="geometry" />
        </mxCell>
        <mxCell id="F4fyEYWxjTzVGHHiyolC-6" style="edgeStyle=orthogonalEdgeStyle;rounded=0;jumpStyle=gap;orthogonalLoop=1;jettySize=auto;html=1;entryX=0.75;entryY=0;entryDx=0;entryDy=0;startArrow=none;startFill=0;startSize=4;endArrow=classic;endFill=1;endSize=4;strokeColor=#808080;strokeWidth=2;" parent="F4fyEYWxjTzVGHHiyolC-2" source="F4fyEYWxjTzVGHHiyolC-7" target="F4fyEYWxjTzVGHHiyolC-10" edge="1">
          <mxGeometry relative="1" as="geometry">
            <Array as="points">
              <mxPoint x="255" y="190" />
              <mxPoint x="580" y="190" />
            </Array>
          </mxGeometry>
        </mxCell>
        <mxCell id="F4fyEYWxjTzVGHHiyolC-7" value="&lt;font color=&quot;#ffffff&quot;&gt;&lt;b&gt;Online Services - .Net&lt;/b&gt;&lt;/font&gt;" style="rounded=0;whiteSpace=wrap;html=1;shadow=0;strokeColor=none;strokeWidth=1;fillColor=#87BA6A;" parent="F4fyEYWxjTzVGHHiyolC-2" vertex="1">
          <mxGeometry x="35" y="110" width="440" height="60" as="geometry" />
        </mxCell>
        <mxCell id="F4fyEYWxjTzVGHHiyolC-8" style="edgeStyle=orthogonalEdgeStyle;rounded=0;orthogonalLoop=1;jettySize=auto;html=1;exitX=1;exitY=0.5;exitDx=0;exitDy=0;startArrow=none;startSize=4;endArrow=classic;endFill=1;endSize=4;strokeColor=#808080;strokeWidth=2;startFill=0;" parent="F4fyEYWxjTzVGHHiyolC-2" source="F4fyEYWxjTzVGHHiyolC-9" target="F4fyEYWxjTzVGHHiyolC-10" edge="1">
          <mxGeometry relative="1" as="geometry">
            <Array as="points">
              <mxPoint x="430" y="401" />
              <mxPoint x="430" y="290" />
              <mxPoint x="540" y="290" />
            </Array>
          </mxGeometry>
        </mxCell>
        <mxCell id="F4fyEYWxjTzVGHHiyolC-9" value="&lt;font color=&quot;#ffffff&quot;&gt;&lt;b&gt;Integration Services - .Net&lt;/b&gt;&lt;/font&gt;" style="rounded=0;whiteSpace=wrap;html=1;shadow=0;strokeColor=none;strokeWidth=1;fillColor=#87BA6A;" parent="F4fyEYWxjTzVGHHiyolC-2" vertex="1">
          <mxGeometry x="50" y="371" width="360" height="60" as="geometry" />
        </mxCell>
        <mxCell id="F4fyEYWxjTzVGHHiyolC-10" value="&lt;b style=&quot;color: rgb(255 , 255 , 255)&quot;&gt;IIB&lt;/b&gt;" style="rounded=0;whiteSpace=wrap;html=1;shadow=0;strokeColor=none;strokeWidth=1;fillColor=#007EFF;" parent="F4fyEYWxjTzVGHHiyolC-2" vertex="1">
          <mxGeometry x="490" y="371" width="120" height="60" as="geometry" />
        </mxCell>
        <mxCell id="F4fyEYWxjTzVGHHiyolC-11" value="&lt;font color=&quot;#ffffff&quot;&gt;&lt;b&gt;Internal F5&lt;/b&gt;&lt;/font&gt;" style="rounded=0;whiteSpace=wrap;html=1;shadow=0;strokeColor=none;strokeWidth=1;fillColor=#FF3333;" parent="F4fyEYWxjTzVGHHiyolC-2" vertex="1">
          <mxGeometry x="50" y="310" width="620" height="20" as="geometry" />
        </mxCell>
        <mxCell id="F4fyEYWxjTzVGHHiyolC-12" value="CBS Cloud" style="shape=mxgraph.ibm.box;prType=vpc;fontStyle=0;verticalAlign=top;align=left;spacingLeft=32;spacingTop=4;fillColor=none;rounded=0;whiteSpace=wrap;html=1;strokeColor=#3333FF;strokeWidth=1;dashed=1;container=1;spacing=-4;collapsible=0;expand=0;recursiveResize=0;" parent="F4fyEYWxjTzVGHHiyolC-2" vertex="1">
          <mxGeometry x="280" y="493" width="350" height="106" as="geometry" />
        </mxCell>
        <mxCell id="F4fyEYWxjTzVGHHiyolC-13" value="&lt;b style=&quot;color: rgb(255 , 255 , 255)&quot;&gt;Gemalto&lt;/b&gt;" style="rounded=0;whiteSpace=wrap;html=1;shadow=0;strokeColor=none;strokeWidth=1;fillColor=#007EFF;" parent="F4fyEYWxjTzVGHHiyolC-12" vertex="1">
          <mxGeometry x="40" y="23" width="120" height="60" as="geometry" />
        </mxCell>
        <mxCell id="F4fyEYWxjTzVGHHiyolC-14" value="" style="html=1;aspect=fixed;strokeColor=none;shadow=0;align=center;verticalAlign=top;fillColor=#B3B3B3;shape=mxgraph.gcp2.cloud_monitoring;dashed=1;" parent="F4fyEYWxjTzVGHHiyolC-12" vertex="1">
          <mxGeometry x="200" y="20" width="53.55" height="59.5" as="geometry" />
        </mxCell>
        <mxCell id="F4fyEYWxjTzVGHHiyolC-15" value="" style="html=1;aspect=fixed;strokeColor=none;shadow=0;align=center;verticalAlign=top;fillColor=#B3B3B3;shape=mxgraph.gcp2.cloud_monitoring;dashed=1;" parent="F4fyEYWxjTzVGHHiyolC-12" vertex="1">
          <mxGeometry x="280" y="20" width="53.55" height="59.5" as="geometry" />
        </mxCell>
        <mxCell id="F4fyEYWxjTzVGHHiyolC-16" value="&lt;font style=&quot;font-size: 10px&quot;&gt;CBSAD&lt;/font&gt;" style="text;html=1;strokeColor=none;fillColor=none;align=center;verticalAlign=middle;whiteSpace=wrap;rounded=0;shadow=0;dashed=1;" parent="F4fyEYWxjTzVGHHiyolC-12" vertex="1">
          <mxGeometry x="205" y="80" width="40" height="20" as="geometry" />
        </mxCell>
        <mxCell id="F4fyEYWxjTzVGHHiyolC-17" value="&lt;font style=&quot;font-size: 10px&quot;&gt;CBSAUDIT&lt;/font&gt;" style="text;html=1;strokeColor=none;fillColor=none;align=center;verticalAlign=middle;whiteSpace=wrap;rounded=0;shadow=0;dashed=1;" parent="F4fyEYWxjTzVGHHiyolC-12" vertex="1">
          <mxGeometry x="286.78" y="80" width="40" height="20" as="geometry" />
        </mxCell>
        <mxCell id="F4fyEYWxjTzVGHHiyolC-19" value="" style="html=1;aspect=fixed;strokeColor=none;shadow=0;align=center;verticalAlign=top;fillColor=#FFCC99;shape=mxgraph.gcp2.cloud_monitoring;dashed=1;" parent="F4fyEYWxjTzVGHHiyolC-2" vertex="1">
          <mxGeometry x="104" y="500" width="70.2" height="78" as="geometry" />
        </mxCell>
        <mxCell id="F4fyEYWxjTzVGHHiyolC-20" value="&lt;font style=&quot;font-size: 10px&quot;&gt;SUMMIT&lt;/font&gt;" style="text;html=1;strokeColor=none;fillColor=none;align=center;verticalAlign=middle;whiteSpace=wrap;rounded=0;shadow=0;dashed=1;" parent="F4fyEYWxjTzVGHHiyolC-2" vertex="1">
          <mxGeometry x="119.09999999999997" y="578" width="40" height="20" as="geometry" />
        </mxCell>
        <mxCell id="F4fyEYWxjTzVGHHiyolC-21" value="CBS Cloud" style="shape=mxgraph.ibm.box;prType=vpc;fontStyle=0;verticalAlign=top;align=left;spacingLeft=32;spacingTop=4;fillColor=none;rounded=0;whiteSpace=wrap;html=1;strokeColor=#3333FF;strokeWidth=1;dashed=1;container=1;spacing=-4;collapsible=0;expand=0;recursiveResize=0;" parent="F4fyEYWxjTzVGHHiyolC-2" vertex="1">
          <mxGeometry x="35" y="203" width="515" height="60" as="geometry" />
        </mxCell>
        <mxCell id="F4fyEYWxjTzVGHHiyolC-22" value="&lt;b style=&quot;color: rgb(255 , 255 , 255)&quot;&gt;API Gateway - Internal&lt;/b&gt;" style="rounded=0;whiteSpace=wrap;html=1;shadow=0;strokeColor=none;strokeWidth=1;fillColor=#007EFF;" parent="F4fyEYWxjTzVGHHiyolC-21" vertex="1">
          <mxGeometry x="124.1" y="10" width="360.9" height="40" as="geometry" />
        </mxCell>
        <mxCell id="F4fyEYWxjTzVGHHiyolC-23" value="" style="endArrow=none;startArrow=classic;html=1;entryX=0.618;entryY=1.015;entryDx=0;entryDy=0;entryPerimeter=0;rounded=0;endSize=4;startSize=4;strokeWidth=2;strokeColor=#808080;endFill=0;" parent="F4fyEYWxjTzVGHHiyolC-2" edge="1">
          <mxGeometry width="50" height="50" relative="1" as="geometry">
            <mxPoint x="189" y="110" as="sourcePoint" />
            <mxPoint x="188.83999999999986" y="59.999999999999915" as="targetPoint" />
          </mxGeometry>
        </mxCell>
        <mxCell id="F4fyEYWxjTzVGHHiyolC-24" value="" style="endArrow=none;startArrow=classic;html=1;entryX=0.618;entryY=1.015;entryDx=0;entryDy=0;entryPerimeter=0;rounded=0;endSize=4;startSize=4;strokeWidth=2;strokeColor=#808080;endFill=0;" parent="F4fyEYWxjTzVGHHiyolC-2" edge="1">
          <mxGeometry width="50" height="50" relative="1" as="geometry">
            <mxPoint x="190" y="210" as="sourcePoint" />
            <mxPoint x="189.9999999999997" y="170" as="targetPoint" />
          </mxGeometry>
        </mxCell>
        <mxCell id="F4fyEYWxjTzVGHHiyolC-25" value="" style="endArrow=none;startArrow=classic;html=1;entryX=0.25;entryY=1;entryDx=0;entryDy=0;rounded=0;endSize=4;startSize=4;strokeWidth=2;strokeColor=#808080;endFill=0;" parent="F4fyEYWxjTzVGHHiyolC-2" source="F4fyEYWxjTzVGHHiyolC-19" target="F4fyEYWxjTzVGHHiyolC-9" edge="1">
          <mxGeometry width="50" height="50" relative="1" as="geometry">
            <mxPoint x="180" y="450" as="sourcePoint" />
            <mxPoint x="179.99999999999955" y="420" as="targetPoint" />
          </mxGeometry>
        </mxCell>
        <mxCell id="F4fyEYWxjTzVGHHiyolC-26" value="" style="endArrow=none;startArrow=classic;html=1;rounded=0;endSize=4;startSize=4;strokeWidth=2;strokeColor=#808080;endFill=0;exitX=0.5;exitY=0;exitDx=0;exitDy=0;entryX=0.914;entryY=0.997;entryDx=0;entryDy=0;entryPerimeter=0;" parent="F4fyEYWxjTzVGHHiyolC-2" source="F4fyEYWxjTzVGHHiyolC-13" target="F4fyEYWxjTzVGHHiyolC-9" edge="1">
          <mxGeometry width="50" height="50" relative="1" as="geometry">
            <mxPoint x="162.50420168067194" y="510" as="sourcePoint" />
            <mxPoint x="380" y="440" as="targetPoint" />
          </mxGeometry>
        </mxCell>
        <mxCell id="F4fyEYWxjTzVGHHiyolC-27" value="" style="endArrow=none;startArrow=classic;html=1;rounded=0;endSize=4;startSize=4;strokeWidth=2;strokeColor=#808080;endFill=0;exitX=0.347;exitY=0.03;exitDx=0;exitDy=0;exitPerimeter=0;" parent="F4fyEYWxjTzVGHHiyolC-2" source="F4fyEYWxjTzVGHHiyolC-14" edge="1">
          <mxGeometry width="50" height="50" relative="1" as="geometry">
            <mxPoint x="390" y="513" as="sourcePoint" />
            <mxPoint x="395" y="430" as="targetPoint" />
          </mxGeometry>
        </mxCell>
        <mxCell id="F4fyEYWxjTzVGHHiyolC-28" value="" style="endArrow=none;startArrow=classic;html=1;rounded=0;endSize=4;startSize=4;strokeWidth=2;strokeColor=#808080;endFill=0;" parent="F4fyEYWxjTzVGHHiyolC-2" source="F4fyEYWxjTzVGHHiyolC-15" edge="1">
          <mxGeometry width="50" height="50" relative="1" as="geometry">
            <mxPoint x="586" y="500" as="sourcePoint" />
            <mxPoint x="586" y="430" as="targetPoint" />
          </mxGeometry>
        </mxCell>
        <mxCell id="F4fyEYWxjTzVGHHiyolC-30" style="edgeStyle=orthogonalEdgeStyle;rounded=0;jumpStyle=gap;orthogonalLoop=1;jettySize=auto;html=1;entryX=0.25;entryY=0;entryDx=0;entryDy=0;startArrow=none;startFill=0;startSize=4;endArrow=none;endFill=0;endSize=4;strokeColor=#808080;strokeWidth=2;" parent="F4fyEYWxjTzVGHHiyolC-2" target="F4fyEYWxjTzVGHHiyolC-11" edge="1">
          <mxGeometry relative="1" as="geometry">
            <mxPoint x="205" y="253" as="sourcePoint" />
            <Array as="points">
              <mxPoint x="205" y="253" />
            </Array>
          </mxGeometry>
        </mxCell>
        <mxCell id="F4fyEYWxjTzVGHHiyolC-31" value="" style="endArrow=none;startArrow=classic;html=1;entryX=0.618;entryY=1.015;entryDx=0;entryDy=0;entryPerimeter=0;rounded=0;endSize=4;startSize=4;strokeWidth=2;strokeColor=#808080;endFill=0;" parent="F4fyEYWxjTzVGHHiyolC-2" edge="1">
          <mxGeometry width="50" height="50" relative="1" as="geometry">
            <mxPoint x="205" y="370" as="sourcePoint" />
            <mxPoint x="204.99999999999955" y="330" as="targetPoint" />
          </mxGeometry>
        </mxCell>
        <mxCell id="F4fyEYWxjTzVGHHiyolC-32" value="&lt;font color=&quot;#ffffff&quot;&gt;1&lt;/font&gt;" style="ellipse;whiteSpace=wrap;html=1;aspect=fixed;shadow=0;strokeColor=none;strokeWidth=1;fillColor=#33001A;" parent="F4fyEYWxjTzVGHHiyolC-2" vertex="1">
          <mxGeometry x="200" width="20" height="20" as="geometry" />
        </mxCell>
        <mxCell id="F4fyEYWxjTzVGHHiyolC-33" value="&lt;font color=&quot;#ffffff&quot;&gt;2&lt;/font&gt;" style="ellipse;whiteSpace=wrap;html=1;aspect=fixed;shadow=0;strokeColor=none;strokeWidth=1;fillColor=#33001A;" parent="F4fyEYWxjTzVGHHiyolC-2" vertex="1">
          <mxGeometry x="200" y="80" width="20" height="20" as="geometry" />
        </mxCell>
        <mxCell id="F4fyEYWxjTzVGHHiyolC-34" value="&lt;font color=&quot;#ffffff&quot;&gt;5&lt;/font&gt;" style="ellipse;whiteSpace=wrap;html=1;aspect=fixed;shadow=0;strokeColor=none;strokeWidth=1;fillColor=#33001A;" parent="F4fyEYWxjTzVGHHiyolC-2" vertex="1">
          <mxGeometry x="200" y="180" width="20" height="20" as="geometry" />
        </mxCell>
        <mxCell id="F4fyEYWxjTzVGHHiyolC-35" value="&lt;font color=&quot;#ffffff&quot;&gt;6&lt;/font&gt;" style="ellipse;whiteSpace=wrap;html=1;aspect=fixed;shadow=0;strokeColor=none;strokeWidth=1;fillColor=#33001A;" parent="F4fyEYWxjTzVGHHiyolC-2" vertex="1">
          <mxGeometry x="210" y="290" width="20" height="20" as="geometry" />
        </mxCell>
        <mxCell id="F4fyEYWxjTzVGHHiyolC-36" value="&lt;font color=&quot;#ffffff&quot;&gt;7&lt;/font&gt;" style="ellipse;whiteSpace=wrap;html=1;aspect=fixed;shadow=0;strokeColor=none;strokeWidth=1;fillColor=#33001A;" parent="F4fyEYWxjTzVGHHiyolC-2" vertex="1">
          <mxGeometry x="210" y="350" width="20" height="20" as="geometry" />
        </mxCell>
        <mxCell id="F4fyEYWxjTzVGHHiyolC-37" value="&lt;font color=&quot;#ffffff&quot;&gt;8a&lt;/font&gt;" style="ellipse;whiteSpace=wrap;html=1;aspect=fixed;shadow=0;strokeColor=none;strokeWidth=1;fillColor=#33001A;" parent="F4fyEYWxjTzVGHHiyolC-2" vertex="1">
          <mxGeometry x="150" y="454" width="20" height="20" as="geometry" />
        </mxCell>
        <mxCell id="F4fyEYWxjTzVGHHiyolC-38" value="&lt;font color=&quot;#ffffff&quot;&gt;8b&lt;/font&gt;" style="ellipse;whiteSpace=wrap;html=1;aspect=fixed;shadow=0;strokeColor=none;strokeWidth=1;fillColor=#33001A;" parent="F4fyEYWxjTzVGHHiyolC-2" vertex="1">
          <mxGeometry x="355" y="473" width="20" height="20" as="geometry" />
        </mxCell>
        <mxCell id="F4fyEYWxjTzVGHHiyolC-39" value="&lt;font color=&quot;#ffffff&quot;&gt;8c&lt;/font&gt;" style="ellipse;whiteSpace=wrap;html=1;aspect=fixed;shadow=0;strokeColor=none;strokeWidth=1;fillColor=#33001A;" parent="F4fyEYWxjTzVGHHiyolC-2" vertex="1">
          <mxGeometry x="470" y="473" width="20" height="20" as="geometry" />
        </mxCell>
        <mxCell id="F4fyEYWxjTzVGHHiyolC-41" value="&lt;font color=&quot;#ffffff&quot;&gt;3&lt;/font&gt;" style="ellipse;whiteSpace=wrap;html=1;aspect=fixed;shadow=0;strokeColor=none;strokeWidth=1;fillColor=#33001A;" parent="F4fyEYWxjTzVGHHiyolC-2" vertex="1">
          <mxGeometry x="590" y="290" width="20" height="20" as="geometry" />
        </mxCell>
        <mxCell id="F4fyEYWxjTzVGHHiyolC-42" value="&lt;font color=&quot;#ffffff&quot;&gt;4&lt;/font&gt;" style="ellipse;whiteSpace=wrap;html=1;aspect=fixed;shadow=0;strokeColor=none;strokeWidth=1;fillColor=#33001A;" parent="F4fyEYWxjTzVGHHiyolC-2" vertex="1">
          <mxGeometry x="590" y="350" width="20" height="20" as="geometry" />
        </mxCell>
        <mxCell id="F4fyEYWxjTzVGHHiyolC-43" value="&lt;font color=&quot;#ffffff&quot;&gt;8d&lt;/font&gt;" style="ellipse;whiteSpace=wrap;html=1;aspect=fixed;shadow=0;strokeColor=none;strokeWidth=1;fillColor=#33001A;" parent="F4fyEYWxjTzVGHHiyolC-2" vertex="1">
          <mxGeometry x="510" y="350" width="20" height="20" as="geometry" />
        </mxCell>
        <mxCell id="F4fyEYWxjTzVGHHiyolC-53" value="&lt;b&gt;&lt;font color=&quot;#000099&quot;&gt;Customer&lt;/font&gt;&lt;/b&gt;" style="rounded=0;whiteSpace=wrap;html=1;shadow=0;strokeColor=#000099;strokeWidth=1;fillColor=none;" parent="F4fyEYWxjTzVGHHiyolC-1" vertex="1">
          <mxGeometry x="-885" y="-120" width="120" height="40" as="geometry" />
        </mxCell>
        <mxCell id="F4fyEYWxjTzVGHHiyolC-54" value="" style="endArrow=none;startArrow=classic;html=1;entryX=0.618;entryY=1.015;entryDx=0;entryDy=0;entryPerimeter=0;exitX=0.263;exitY=-0.06;exitDx=0;exitDy=0;exitPerimeter=0;rounded=0;endSize=4;startSize=4;strokeWidth=2;strokeColor=#808080;endFill=0;" parent="F4fyEYWxjTzVGHHiyolC-1" edge="1">
          <mxGeometry width="50" height="50" relative="1" as="geometry">
            <mxPoint x="-823.6799999999998" y="-21.799999999999955" as="sourcePoint" />
            <mxPoint x="-822.8400000000001" y="-79.40000000000009" as="targetPoint" />
          </mxGeometry>
        </mxCell>
        <mxCell id="F4fyEYWxjTzVGHHiyolC-58" value="Legends" style="fontStyle=1;verticalAlign=top;align=center;spacingTop=-2;fillColor=none;rounded=0;whiteSpace=wrap;html=1;strokeColor=#4376BB;strokeWidth=1;dashed=0;container=1;collapsible=0;expand=0;recursiveResize=0;shadow=0;" parent="F4fyEYWxjTzVGHHiyolC-1" vertex="1">
          <mxGeometry x="-260" y="460" width="245" height="240" as="geometry" />
        </mxCell>
        <mxCell id="F4fyEYWxjTzVGHHiyolC-59" value="" style="rounded=0;whiteSpace=wrap;html=1;shadow=0;strokeColor=none;strokeWidth=1;fillColor=#FF3333;" parent="F4fyEYWxjTzVGHHiyolC-58" vertex="1">
          <mxGeometry x="15" y="35" width="35" height="20" as="geometry" />
        </mxCell>
        <mxCell id="F4fyEYWxjTzVGHHiyolC-60" value="&lt;font style=&quot;font-size: 12px;&quot;&gt;Networks - Carl Samual&lt;/font&gt;" style="text;html=1;strokeColor=none;fillColor=none;align=left;verticalAlign=middle;whiteSpace=wrap;rounded=0;shadow=0;dashed=1;fontSize=12;fontStyle=1" parent="F4fyEYWxjTzVGHHiyolC-58" vertex="1">
          <mxGeometry x="60" y="35" width="160" height="20" as="geometry" />
        </mxCell>
        <mxCell id="F4fyEYWxjTzVGHHiyolC-61" value="" style="rounded=0;whiteSpace=wrap;html=1;shadow=0;strokeColor=none;strokeWidth=1;fillColor=#007EFF;" parent="F4fyEYWxjTzVGHHiyolC-58" vertex="1">
          <mxGeometry x="15" y="64" width="35" height="20" as="geometry" />
        </mxCell>
        <mxCell id="F4fyEYWxjTzVGHHiyolC-62" value="&lt;font style=&quot;font-size: 12px;&quot;&gt;Middleware - Richard Walton&lt;/font&gt;" style="text;html=1;strokeColor=none;fillColor=none;align=left;verticalAlign=middle;whiteSpace=wrap;rounded=0;shadow=0;dashed=1;fontStyle=1;fontSize=12;" parent="F4fyEYWxjTzVGHHiyolC-58" vertex="1">
          <mxGeometry x="60" y="64" width="170" height="20" as="geometry" />
        </mxCell>
        <mxCell id="F4fyEYWxjTzVGHHiyolC-63" value="" style="rounded=0;whiteSpace=wrap;html=1;shadow=0;strokeColor=none;strokeWidth=1;fillColor=#87BA6A;" parent="F4fyEYWxjTzVGHHiyolC-58" vertex="1">
          <mxGeometry x="15" y="95" width="35" height="20" as="geometry" />
        </mxCell>
        <mxCell id="F4fyEYWxjTzVGHHiyolC-64" value="&lt;font style=&quot;font-size: 12px;&quot;&gt;App Support - Chris Dowds&lt;/font&gt;" style="text;html=1;strokeColor=none;fillColor=none;align=left;verticalAlign=middle;whiteSpace=wrap;rounded=0;shadow=0;dashed=1;fontStyle=1;fontSize=12;" parent="F4fyEYWxjTzVGHHiyolC-58" vertex="1">
          <mxGeometry x="60" y="95" width="160" height="20" as="geometry" />
        </mxCell>
        <mxCell id="F4fyEYWxjTzVGHHiyolC-65" value="" style="whiteSpace=wrap;html=1;shadow=0;strokeColor=none;fillColor=#FFCC99;dashed=1;verticalAlign=top;" parent="F4fyEYWxjTzVGHHiyolC-58" vertex="1">
          <mxGeometry x="15" y="126" width="35" height="20" as="geometry" />
        </mxCell>
        <mxCell id="F4fyEYWxjTzVGHHiyolC-66" value="&lt;font style=&quot;font-size: 12px;&quot;&gt;Development - Sophie Tudor&lt;/font&gt;" style="text;html=1;strokeColor=none;fillColor=none;align=left;verticalAlign=middle;whiteSpace=wrap;rounded=0;shadow=0;dashed=1;fontStyle=1;fontSize=12;" parent="F4fyEYWxjTzVGHHiyolC-58" vertex="1">
          <mxGeometry x="60" y="126" width="170" height="20" as="geometry" />
        </mxCell>
        <mxCell id="F4fyEYWxjTzVGHHiyolC-67" value="" style="whiteSpace=wrap;html=1;shadow=0;strokeColor=none;fillColor=#B3B3B3;dashed=1;verticalAlign=top;" parent="F4fyEYWxjTzVGHHiyolC-58" vertex="1">
          <mxGeometry x="15" y="156" width="35" height="20" as="geometry" />
        </mxCell>
        <mxCell id="F4fyEYWxjTzVGHHiyolC-68" value="&lt;font style=&quot;font-size: 12px&quot;&gt;Linux &amp;amp; DB Support - Chris Raward&lt;/font&gt;" style="text;html=1;strokeColor=none;fillColor=none;align=left;verticalAlign=middle;whiteSpace=wrap;rounded=0;shadow=0;dashed=1;fontSize=12;fontStyle=1" parent="F4fyEYWxjTzVGHHiyolC-58" vertex="1">
          <mxGeometry x="60" y="156" width="180" height="20" as="geometry" />
        </mxCell>
        <mxCell id="F4fyEYWxjTzVGHHiyolC-69" value="" style="whiteSpace=wrap;html=1;shadow=0;strokeColor=none;fillColor=#612744;verticalAlign=middle;rounded=0;strokeWidth=1;" parent="F4fyEYWxjTzVGHHiyolC-58" vertex="1">
          <mxGeometry x="15" y="186" width="35" height="20" as="geometry" />
        </mxCell>
        <mxCell id="F4fyEYWxjTzVGHHiyolC-70" value="&lt;font style=&quot;font-size: 12px;&quot;&gt;External provider&lt;/font&gt;" style="text;html=1;strokeColor=none;fillColor=none;align=left;verticalAlign=middle;whiteSpace=wrap;rounded=0;shadow=0;dashed=1;fontSize=12;fontStyle=1" parent="F4fyEYWxjTzVGHHiyolC-58" vertex="1">
          <mxGeometry x="60" y="186" width="170" height="20" as="geometry" />
        </mxCell>
        <mxCell id="F4fyEYWxjTzVGHHiyolC-73" value="" style="rounded=1;whiteSpace=wrap;html=1;shadow=0;strokeColor=none;strokeWidth=1;fillColor=none;" parent="F4fyEYWxjTzVGHHiyolC-1" vertex="1">
          <mxGeometry x="-1150" y="-60" width="80" height="660" as="geometry" />
        </mxCell>
        <mxCell id="F4fyEYWxjTzVGHHiyolC-74" value="" style="rounded=0;whiteSpace=wrap;html=1;shadow=0;strokeColor=none;strokeWidth=1;fillColor=none;" parent="F4fyEYWxjTzVGHHiyolC-1" vertex="1">
          <mxGeometry x="-1050" y="-290" width="700" height="70" as="geometry" />
        </mxCell>
        <mxCell id="F4fyEYWxjTzVGHHiyolC-75" value="" style="rounded=1;whiteSpace=wrap;html=1;shadow=0;strokeColor=none;strokeWidth=1;fillColor=none;" parent="F4fyEYWxjTzVGHHiyolC-1" vertex="1">
          <mxGeometry x="-230" y="780" width="340" height="60" as="geometry" />
        </mxCell>
        <mxCell id="F4fyEYWxjTzVGHHiyolC-76" value="" style="rounded=1;whiteSpace=wrap;html=1;shadow=0;strokeColor=none;strokeWidth=1;fillColor=none;" parent="F4fyEYWxjTzVGHHiyolC-1" vertex="1">
          <mxGeometry x="190" y="190" width="120" height="230" as="geometry" />
        </mxCell>
        <mxCell id="F4fyEYWxjTzVGHHiyolC-82" value="&lt;b&gt;&lt;font style=&quot;font-size: 14px&quot; color=&quot;#4a1e34&quot;&gt;Retrieve User Name, OASA&lt;/font&gt;&lt;/b&gt;" style="text;html=1;strokeColor=none;fillColor=none;align=center;verticalAlign=middle;whiteSpace=wrap;rounded=0;" parent="F4fyEYWxjTzVGHHiyolC-1" vertex="1">
          <mxGeometry x="-897" y="-180" width="547" height="20" as="geometry" />
        </mxCell>
      </root>
    </mxGraphModel>
  </diagram>
  <diagram id="zOh6TrggRnJ5yDEyo2fZ" name="Sales System">
    <mxGraphModel dx="2978" dy="1648" grid="1" gridSize="10" guides="1" tooltips="1" connect="1" arrows="1" fold="1" page="1" pageScale="1" pageWidth="850" pageHeight="1100" math="0" shadow="0">
      <root>
        <mxCell id="6CJWkMy-3zw3GvHLBf_q-0" />
        <mxCell id="6CJWkMy-3zw3GvHLBf_q-1" parent="6CJWkMy-3zw3GvHLBf_q-0" />
        <mxCell id="6CJWkMy-3zw3GvHLBf_q-2" value="CBS&amp;nbsp;" style="shape=mxgraph.ibm.box;prType=enterprise;fontStyle=0;verticalAlign=top;align=left;spacingLeft=32;spacingTop=4;fillColor=#CCFFFF;rounded=0;whiteSpace=wrap;html=1;strokeColor=#4376BB;strokeWidth=1;dashed=0;container=1;spacing=-4;collapsible=0;expand=0;recursiveResize=0;perimeterSpacing=0;shadow=0;" parent="6CJWkMy-3zw3GvHLBf_q-1" vertex="1">
          <mxGeometry x="-1015" y="-50" width="730" height="650" as="geometry" />
        </mxCell>
        <mxCell id="6CJWkMy-3zw3GvHLBf_q-4" style="edgeStyle=orthogonalEdgeStyle;rounded=0;jumpStyle=gap;orthogonalLoop=1;jettySize=auto;html=1;entryX=0.75;entryY=0;entryDx=0;entryDy=0;startArrow=none;startFill=0;startSize=4;endArrow=classic;endFill=1;endSize=4;strokeColor=#808080;strokeWidth=2;" parent="6CJWkMy-3zw3GvHLBf_q-2" source="6CJWkMy-3zw3GvHLBf_q-5" target="6CJWkMy-3zw3GvHLBf_q-8" edge="1">
          <mxGeometry relative="1" as="geometry">
            <Array as="points">
              <mxPoint x="255" y="190" />
              <mxPoint x="580" y="190" />
            </Array>
          </mxGeometry>
        </mxCell>
        <mxCell id="6CJWkMy-3zw3GvHLBf_q-5" value="&lt;font color=&quot;#ffffff&quot;&gt;&lt;b&gt;App servers - .Net&lt;/b&gt;&lt;/font&gt;" style="rounded=0;whiteSpace=wrap;html=1;shadow=0;strokeColor=none;strokeWidth=1;fillColor=#87BA6A;" parent="6CJWkMy-3zw3GvHLBf_q-2" vertex="1">
          <mxGeometry x="35" y="130" width="440" height="40" as="geometry" />
        </mxCell>
        <mxCell id="6CJWkMy-3zw3GvHLBf_q-6" style="edgeStyle=orthogonalEdgeStyle;rounded=0;orthogonalLoop=1;jettySize=auto;html=1;exitX=1;exitY=0.5;exitDx=0;exitDy=0;startArrow=none;startSize=4;endArrow=classic;endFill=1;endSize=4;strokeColor=#808080;strokeWidth=2;startFill=0;" parent="6CJWkMy-3zw3GvHLBf_q-2" source="6CJWkMy-3zw3GvHLBf_q-7" target="6CJWkMy-3zw3GvHLBf_q-8" edge="1">
          <mxGeometry relative="1" as="geometry">
            <Array as="points">
              <mxPoint x="430" y="401" />
              <mxPoint x="430" y="290" />
              <mxPoint x="540" y="290" />
            </Array>
          </mxGeometry>
        </mxCell>
        <mxCell id="6CJWkMy-3zw3GvHLBf_q-7" value="&lt;font color=&quot;#ffffff&quot;&gt;&lt;b&gt;Integration Services - .Net&lt;/b&gt;&lt;/font&gt;" style="rounded=0;whiteSpace=wrap;html=1;shadow=0;strokeColor=none;strokeWidth=1;fillColor=#87BA6A;" parent="6CJWkMy-3zw3GvHLBf_q-2" vertex="1">
          <mxGeometry x="50" y="371" width="360" height="60" as="geometry" />
        </mxCell>
        <mxCell id="6CJWkMy-3zw3GvHLBf_q-8" value="&lt;b style=&quot;color: rgb(255 , 255 , 255)&quot;&gt;IIB&lt;/b&gt;" style="rounded=0;whiteSpace=wrap;html=1;shadow=0;strokeColor=none;strokeWidth=1;fillColor=#007EFF;" parent="6CJWkMy-3zw3GvHLBf_q-2" vertex="1">
          <mxGeometry x="490" y="371" width="120" height="60" as="geometry" />
        </mxCell>
        <mxCell id="6CJWkMy-3zw3GvHLBf_q-9" value="&lt;font color=&quot;#ffffff&quot;&gt;&lt;b&gt;Internal F5&lt;/b&gt;&lt;/font&gt;" style="rounded=0;whiteSpace=wrap;html=1;shadow=0;strokeColor=none;strokeWidth=1;fillColor=#FF3333;" parent="6CJWkMy-3zw3GvHLBf_q-2" vertex="1">
          <mxGeometry x="50" y="310" width="620" height="20" as="geometry" />
        </mxCell>
        <mxCell id="6CJWkMy-3zw3GvHLBf_q-10" value="CBS Cloud" style="shape=mxgraph.ibm.box;prType=vpc;fontStyle=0;verticalAlign=top;align=left;spacingLeft=32;spacingTop=4;fillColor=none;rounded=0;whiteSpace=wrap;html=1;strokeColor=#3333FF;strokeWidth=1;dashed=1;container=1;spacing=-4;collapsible=0;expand=0;recursiveResize=0;" parent="6CJWkMy-3zw3GvHLBf_q-2" vertex="1">
          <mxGeometry x="280" y="493" width="350" height="106" as="geometry" />
        </mxCell>
        <mxCell id="6CJWkMy-3zw3GvHLBf_q-11" value="&lt;b style=&quot;color: rgb(255 , 255 , 255)&quot;&gt;Gemalto&lt;/b&gt;" style="rounded=0;whiteSpace=wrap;html=1;shadow=0;strokeColor=none;strokeWidth=1;fillColor=#007EFF;" parent="6CJWkMy-3zw3GvHLBf_q-10" vertex="1">
          <mxGeometry x="40" y="23" width="120" height="60" as="geometry" />
        </mxCell>
        <mxCell id="6CJWkMy-3zw3GvHLBf_q-12" value="" style="html=1;aspect=fixed;strokeColor=none;shadow=0;align=center;verticalAlign=top;fillColor=#B3B3B3;shape=mxgraph.gcp2.cloud_monitoring;dashed=1;" parent="6CJWkMy-3zw3GvHLBf_q-10" vertex="1">
          <mxGeometry x="200" y="20" width="53.55" height="59.5" as="geometry" />
        </mxCell>
        <mxCell id="6CJWkMy-3zw3GvHLBf_q-13" value="" style="html=1;aspect=fixed;strokeColor=none;shadow=0;align=center;verticalAlign=top;fillColor=#B3B3B3;shape=mxgraph.gcp2.cloud_monitoring;dashed=1;" parent="6CJWkMy-3zw3GvHLBf_q-10" vertex="1">
          <mxGeometry x="280" y="20" width="53.55" height="59.5" as="geometry" />
        </mxCell>
        <mxCell id="6CJWkMy-3zw3GvHLBf_q-14" value="&lt;font style=&quot;font-size: 10px&quot;&gt;CBSAD&lt;/font&gt;" style="text;html=1;strokeColor=none;fillColor=none;align=center;verticalAlign=middle;whiteSpace=wrap;rounded=0;shadow=0;dashed=1;" parent="6CJWkMy-3zw3GvHLBf_q-10" vertex="1">
          <mxGeometry x="205" y="80" width="40" height="20" as="geometry" />
        </mxCell>
        <mxCell id="6CJWkMy-3zw3GvHLBf_q-15" value="&lt;font style=&quot;font-size: 10px&quot;&gt;CBSAUDIT&lt;/font&gt;" style="text;html=1;strokeColor=none;fillColor=none;align=center;verticalAlign=middle;whiteSpace=wrap;rounded=0;shadow=0;dashed=1;" parent="6CJWkMy-3zw3GvHLBf_q-10" vertex="1">
          <mxGeometry x="286.78" y="80" width="40" height="20" as="geometry" />
        </mxCell>
        <mxCell id="6CJWkMy-3zw3GvHLBf_q-16" value="" style="html=1;aspect=fixed;strokeColor=none;shadow=0;align=center;verticalAlign=top;fillColor=#FFCC99;shape=mxgraph.gcp2.cloud_monitoring;dashed=1;" parent="6CJWkMy-3zw3GvHLBf_q-2" vertex="1">
          <mxGeometry x="104" y="500" width="70.2" height="78" as="geometry" />
        </mxCell>
        <mxCell id="6CJWkMy-3zw3GvHLBf_q-17" value="&lt;font style=&quot;font-size: 10px&quot;&gt;SUMMIT&lt;/font&gt;" style="text;html=1;strokeColor=none;fillColor=none;align=center;verticalAlign=middle;whiteSpace=wrap;rounded=0;shadow=0;dashed=1;" parent="6CJWkMy-3zw3GvHLBf_q-2" vertex="1">
          <mxGeometry x="119.09999999999997" y="578" width="40" height="20" as="geometry" />
        </mxCell>
        <mxCell id="6CJWkMy-3zw3GvHLBf_q-18" value="CBS Cloud" style="shape=mxgraph.ibm.box;prType=vpc;fontStyle=0;verticalAlign=top;align=left;spacingLeft=32;spacingTop=4;fillColor=none;rounded=0;whiteSpace=wrap;html=1;strokeColor=#3333FF;strokeWidth=1;dashed=1;container=1;spacing=-4;collapsible=0;expand=0;recursiveResize=0;" parent="6CJWkMy-3zw3GvHLBf_q-2" vertex="1">
          <mxGeometry x="35" y="203" width="515" height="60" as="geometry" />
        </mxCell>
        <mxCell id="6CJWkMy-3zw3GvHLBf_q-19" value="&lt;b style=&quot;color: rgb(255 , 255 , 255)&quot;&gt;API Gateway - Internal&lt;/b&gt;" style="rounded=0;whiteSpace=wrap;html=1;shadow=0;strokeColor=none;strokeWidth=1;fillColor=#007EFF;" parent="6CJWkMy-3zw3GvHLBf_q-18" vertex="1">
          <mxGeometry x="124.1" y="10" width="360.9" height="40" as="geometry" />
        </mxCell>
        <mxCell id="6CJWkMy-3zw3GvHLBf_q-21" value="" style="endArrow=none;startArrow=classic;html=1;entryX=0.618;entryY=1.015;entryDx=0;entryDy=0;entryPerimeter=0;rounded=0;endSize=4;startSize=4;strokeWidth=2;strokeColor=#808080;endFill=0;" parent="6CJWkMy-3zw3GvHLBf_q-2" edge="1">
          <mxGeometry width="50" height="50" relative="1" as="geometry">
            <mxPoint x="190" y="210" as="sourcePoint" />
            <mxPoint x="189.9999999999997" y="170" as="targetPoint" />
          </mxGeometry>
        </mxCell>
        <mxCell id="6CJWkMy-3zw3GvHLBf_q-22" value="" style="endArrow=none;startArrow=classic;html=1;entryX=0.25;entryY=1;entryDx=0;entryDy=0;rounded=0;endSize=4;startSize=4;strokeWidth=2;strokeColor=#808080;endFill=0;" parent="6CJWkMy-3zw3GvHLBf_q-2" source="6CJWkMy-3zw3GvHLBf_q-16" target="6CJWkMy-3zw3GvHLBf_q-7" edge="1">
          <mxGeometry width="50" height="50" relative="1" as="geometry">
            <mxPoint x="180" y="450" as="sourcePoint" />
            <mxPoint x="179.99999999999955" y="420" as="targetPoint" />
          </mxGeometry>
        </mxCell>
        <mxCell id="6CJWkMy-3zw3GvHLBf_q-23" value="" style="endArrow=none;startArrow=classic;html=1;rounded=0;endSize=4;startSize=4;strokeWidth=2;strokeColor=#808080;endFill=0;exitX=0.5;exitY=0;exitDx=0;exitDy=0;entryX=0.914;entryY=0.997;entryDx=0;entryDy=0;entryPerimeter=0;" parent="6CJWkMy-3zw3GvHLBf_q-2" source="6CJWkMy-3zw3GvHLBf_q-11" target="6CJWkMy-3zw3GvHLBf_q-7" edge="1">
          <mxGeometry width="50" height="50" relative="1" as="geometry">
            <mxPoint x="162.50420168067194" y="510" as="sourcePoint" />
            <mxPoint x="380" y="440" as="targetPoint" />
          </mxGeometry>
        </mxCell>
        <mxCell id="6CJWkMy-3zw3GvHLBf_q-24" value="" style="endArrow=none;startArrow=classic;html=1;rounded=0;endSize=4;startSize=4;strokeWidth=2;strokeColor=#808080;endFill=0;exitX=0.347;exitY=0.03;exitDx=0;exitDy=0;exitPerimeter=0;" parent="6CJWkMy-3zw3GvHLBf_q-2" source="6CJWkMy-3zw3GvHLBf_q-12" edge="1">
          <mxGeometry width="50" height="50" relative="1" as="geometry">
            <mxPoint x="390" y="513" as="sourcePoint" />
            <mxPoint x="395" y="430" as="targetPoint" />
          </mxGeometry>
        </mxCell>
        <mxCell id="6CJWkMy-3zw3GvHLBf_q-25" value="" style="endArrow=none;startArrow=classic;html=1;rounded=0;endSize=4;startSize=4;strokeWidth=2;strokeColor=#808080;endFill=0;" parent="6CJWkMy-3zw3GvHLBf_q-2" source="6CJWkMy-3zw3GvHLBf_q-13" edge="1">
          <mxGeometry width="50" height="50" relative="1" as="geometry">
            <mxPoint x="586" y="500" as="sourcePoint" />
            <mxPoint x="586" y="430" as="targetPoint" />
          </mxGeometry>
        </mxCell>
        <mxCell id="6CJWkMy-3zw3GvHLBf_q-26" style="edgeStyle=orthogonalEdgeStyle;rounded=0;jumpStyle=gap;orthogonalLoop=1;jettySize=auto;html=1;entryX=0.25;entryY=0;entryDx=0;entryDy=0;startArrow=none;startFill=0;startSize=4;endArrow=none;endFill=0;endSize=4;strokeColor=#808080;strokeWidth=2;" parent="6CJWkMy-3zw3GvHLBf_q-2" target="6CJWkMy-3zw3GvHLBf_q-9" edge="1">
          <mxGeometry relative="1" as="geometry">
            <mxPoint x="205" y="253" as="sourcePoint" />
            <Array as="points">
              <mxPoint x="205" y="253" />
            </Array>
          </mxGeometry>
        </mxCell>
        <mxCell id="6CJWkMy-3zw3GvHLBf_q-27" value="" style="endArrow=none;startArrow=classic;html=1;entryX=0.618;entryY=1.015;entryDx=0;entryDy=0;entryPerimeter=0;rounded=0;endSize=4;startSize=4;strokeWidth=2;strokeColor=#808080;endFill=0;" parent="6CJWkMy-3zw3GvHLBf_q-2" edge="1">
          <mxGeometry width="50" height="50" relative="1" as="geometry">
            <mxPoint x="205" y="370" as="sourcePoint" />
            <mxPoint x="204.99999999999955" y="330" as="targetPoint" />
          </mxGeometry>
        </mxCell>
        <mxCell id="6CJWkMy-3zw3GvHLBf_q-28" value="&lt;font color=&quot;#ffffff&quot;&gt;1&lt;/font&gt;" style="ellipse;whiteSpace=wrap;html=1;aspect=fixed;shadow=0;strokeColor=none;strokeWidth=1;fillColor=#33001A;" parent="6CJWkMy-3zw3GvHLBf_q-2" vertex="1">
          <mxGeometry x="385" y="50" width="20" height="20" as="geometry" />
        </mxCell>
        <mxCell id="6CJWkMy-3zw3GvHLBf_q-29" value="&lt;font color=&quot;#ffffff&quot;&gt;2&lt;/font&gt;" style="ellipse;whiteSpace=wrap;html=1;aspect=fixed;shadow=0;strokeColor=none;strokeWidth=1;fillColor=#33001A;" parent="6CJWkMy-3zw3GvHLBf_q-2" vertex="1">
          <mxGeometry x="245" y="107" width="20" height="20" as="geometry" />
        </mxCell>
        <mxCell id="6CJWkMy-3zw3GvHLBf_q-30" value="&lt;font color=&quot;#ffffff&quot;&gt;5&lt;/font&gt;" style="ellipse;whiteSpace=wrap;html=1;aspect=fixed;shadow=0;strokeColor=none;strokeWidth=1;fillColor=#33001A;" parent="6CJWkMy-3zw3GvHLBf_q-2" vertex="1">
          <mxGeometry x="200" y="180" width="20" height="20" as="geometry" />
        </mxCell>
        <mxCell id="6CJWkMy-3zw3GvHLBf_q-31" value="&lt;font color=&quot;#ffffff&quot;&gt;6&lt;/font&gt;" style="ellipse;whiteSpace=wrap;html=1;aspect=fixed;shadow=0;strokeColor=none;strokeWidth=1;fillColor=#33001A;" parent="6CJWkMy-3zw3GvHLBf_q-2" vertex="1">
          <mxGeometry x="210" y="290" width="20" height="20" as="geometry" />
        </mxCell>
        <mxCell id="6CJWkMy-3zw3GvHLBf_q-32" value="&lt;font color=&quot;#ffffff&quot;&gt;7&lt;/font&gt;" style="ellipse;whiteSpace=wrap;html=1;aspect=fixed;shadow=0;strokeColor=none;strokeWidth=1;fillColor=#33001A;" parent="6CJWkMy-3zw3GvHLBf_q-2" vertex="1">
          <mxGeometry x="210" y="350" width="20" height="20" as="geometry" />
        </mxCell>
        <mxCell id="6CJWkMy-3zw3GvHLBf_q-33" value="&lt;font color=&quot;#ffffff&quot;&gt;8a&lt;/font&gt;" style="ellipse;whiteSpace=wrap;html=1;aspect=fixed;shadow=0;strokeColor=none;strokeWidth=1;fillColor=#33001A;" parent="6CJWkMy-3zw3GvHLBf_q-2" vertex="1">
          <mxGeometry x="150" y="454" width="20" height="20" as="geometry" />
        </mxCell>
        <mxCell id="6CJWkMy-3zw3GvHLBf_q-34" value="&lt;font color=&quot;#ffffff&quot;&gt;8b&lt;/font&gt;" style="ellipse;whiteSpace=wrap;html=1;aspect=fixed;shadow=0;strokeColor=none;strokeWidth=1;fillColor=#33001A;" parent="6CJWkMy-3zw3GvHLBf_q-2" vertex="1">
          <mxGeometry x="355" y="473" width="20" height="20" as="geometry" />
        </mxCell>
        <mxCell id="6CJWkMy-3zw3GvHLBf_q-35" value="&lt;font color=&quot;#ffffff&quot;&gt;8c&lt;/font&gt;" style="ellipse;whiteSpace=wrap;html=1;aspect=fixed;shadow=0;strokeColor=none;strokeWidth=1;fillColor=#33001A;" parent="6CJWkMy-3zw3GvHLBf_q-2" vertex="1">
          <mxGeometry x="470" y="473" width="20" height="20" as="geometry" />
        </mxCell>
        <mxCell id="6CJWkMy-3zw3GvHLBf_q-36" value="&lt;font color=&quot;#ffffff&quot;&gt;3&lt;/font&gt;" style="ellipse;whiteSpace=wrap;html=1;aspect=fixed;shadow=0;strokeColor=none;strokeWidth=1;fillColor=#33001A;" parent="6CJWkMy-3zw3GvHLBf_q-2" vertex="1">
          <mxGeometry x="590" y="290" width="20" height="20" as="geometry" />
        </mxCell>
        <mxCell id="6CJWkMy-3zw3GvHLBf_q-37" value="&lt;font color=&quot;#ffffff&quot;&gt;4&lt;/font&gt;" style="ellipse;whiteSpace=wrap;html=1;aspect=fixed;shadow=0;strokeColor=none;strokeWidth=1;fillColor=#33001A;" parent="6CJWkMy-3zw3GvHLBf_q-2" vertex="1">
          <mxGeometry x="590" y="350" width="20" height="20" as="geometry" />
        </mxCell>
        <mxCell id="6CJWkMy-3zw3GvHLBf_q-38" value="&lt;font color=&quot;#ffffff&quot;&gt;8d&lt;/font&gt;" style="ellipse;whiteSpace=wrap;html=1;aspect=fixed;shadow=0;strokeColor=none;strokeWidth=1;fillColor=#33001A;" parent="6CJWkMy-3zw3GvHLBf_q-2" vertex="1">
          <mxGeometry x="510" y="350" width="20" height="20" as="geometry" />
        </mxCell>
        <mxCell id="6CJWkMy-3zw3GvHLBf_q-60" value="" style="endArrow=none;startArrow=classic;html=1;rounded=0;endSize=4;startSize=4;strokeWidth=2;strokeColor=#808080;endFill=0;exitX=0.063;exitY=0.04;exitDx=0;exitDy=0;exitPerimeter=0;entryX=1;entryY=0.75;entryDx=0;entryDy=0;" parent="6CJWkMy-3zw3GvHLBf_q-2" source="6CJWkMy-3zw3GvHLBf_q-13" target="6CJWkMy-3zw3GvHLBf_q-7" edge="1">
          <mxGeometry width="50" height="50" relative="1" as="geometry">
            <mxPoint x="508.58185000000003" y="499.78499999999985" as="sourcePoint" />
            <mxPoint x="425" y="415" as="targetPoint" />
            <Array as="points" />
          </mxGeometry>
        </mxCell>
        <mxCell id="6CJWkMy-3zw3GvHLBf_q-61" value="&lt;font color=&quot;#ffffff&quot;&gt;8e&lt;/font&gt;" style="ellipse;whiteSpace=wrap;html=1;aspect=fixed;shadow=0;strokeColor=none;strokeWidth=1;fillColor=#33001A;" parent="6CJWkMy-3zw3GvHLBf_q-2" vertex="1">
          <mxGeometry x="525" y="470" width="20" height="20" as="geometry" />
        </mxCell>
        <mxCell id="KLQy8UY5lQEHMxu2jzeh-1" style="edgeStyle=orthogonalEdgeStyle;rounded=0;orthogonalLoop=1;jettySize=auto;html=1;exitX=0.396;exitY=0.95;exitDx=0;exitDy=0;exitPerimeter=0;" edge="1" parent="6CJWkMy-3zw3GvHLBf_q-2" source="KLQy8UY5lQEHMxu2jzeh-0">
          <mxGeometry relative="1" as="geometry">
            <mxPoint x="273" y="131" as="targetPoint" />
            <Array as="points">
              <mxPoint x="271" y="111" />
              <mxPoint x="273" y="111" />
            </Array>
          </mxGeometry>
        </mxCell>
        <mxCell id="KLQy8UY5lQEHMxu2jzeh-0" value="&lt;font color=&quot;#ffffff&quot;&gt;&lt;b&gt;Internal F5&lt;/b&gt;&lt;/font&gt;" style="rounded=0;whiteSpace=wrap;html=1;shadow=0;strokeColor=none;strokeWidth=1;fillColor=#FF3333;" vertex="1" parent="6CJWkMy-3zw3GvHLBf_q-2">
          <mxGeometry x="25" y="70" width="620" height="20" as="geometry" />
        </mxCell>
        <mxCell id="KLQy8UY5lQEHMxu2jzeh-4" style="edgeStyle=orthogonalEdgeStyle;rounded=0;orthogonalLoop=1;jettySize=auto;html=1;exitX=0.5;exitY=1;exitDx=0;exitDy=0;entryX=0.468;entryY=0.03;entryDx=0;entryDy=0;entryPerimeter=0;" edge="1" parent="6CJWkMy-3zw3GvHLBf_q-2" source="6CJWkMy-3zw3GvHLBf_q-39" target="KLQy8UY5lQEHMxu2jzeh-0">
          <mxGeometry relative="1" as="geometry">
            <Array as="points">
              <mxPoint x="315" y="40" />
            </Array>
          </mxGeometry>
        </mxCell>
        <mxCell id="6CJWkMy-3zw3GvHLBf_q-39" value="&lt;b&gt;&lt;font color=&quot;#000099&quot;&gt;Advisors&lt;/font&gt;&lt;/b&gt;" style="rounded=0;whiteSpace=wrap;html=1;shadow=0;strokeColor=#000099;strokeWidth=1;fillColor=none;" parent="6CJWkMy-3zw3GvHLBf_q-2" vertex="1">
          <mxGeometry x="245" y="20" width="120" height="20" as="geometry" />
        </mxCell>
        <mxCell id="6CJWkMy-3zw3GvHLBf_q-41" value="Legends" style="fontStyle=1;verticalAlign=top;align=center;spacingTop=-2;fillColor=none;rounded=0;whiteSpace=wrap;html=1;strokeColor=#4376BB;strokeWidth=1;dashed=0;container=1;collapsible=0;expand=0;recursiveResize=0;shadow=0;" parent="6CJWkMy-3zw3GvHLBf_q-1" vertex="1">
          <mxGeometry x="-260" y="460" width="245" height="240" as="geometry" />
        </mxCell>
        <mxCell id="6CJWkMy-3zw3GvHLBf_q-42" value="" style="rounded=0;whiteSpace=wrap;html=1;shadow=0;strokeColor=none;strokeWidth=1;fillColor=#FF3333;" parent="6CJWkMy-3zw3GvHLBf_q-41" vertex="1">
          <mxGeometry x="15" y="35" width="35" height="20" as="geometry" />
        </mxCell>
        <mxCell id="6CJWkMy-3zw3GvHLBf_q-43" value="&lt;font style=&quot;font-size: 12px;&quot;&gt;Networks - Carl Samual&lt;/font&gt;" style="text;html=1;strokeColor=none;fillColor=none;align=left;verticalAlign=middle;whiteSpace=wrap;rounded=0;shadow=0;dashed=1;fontSize=12;fontStyle=1" parent="6CJWkMy-3zw3GvHLBf_q-41" vertex="1">
          <mxGeometry x="60" y="35" width="160" height="20" as="geometry" />
        </mxCell>
        <mxCell id="6CJWkMy-3zw3GvHLBf_q-44" value="" style="rounded=0;whiteSpace=wrap;html=1;shadow=0;strokeColor=none;strokeWidth=1;fillColor=#007EFF;" parent="6CJWkMy-3zw3GvHLBf_q-41" vertex="1">
          <mxGeometry x="15" y="64" width="35" height="20" as="geometry" />
        </mxCell>
        <mxCell id="6CJWkMy-3zw3GvHLBf_q-45" value="&lt;font style=&quot;font-size: 12px;&quot;&gt;Middleware - Richard Walton&lt;/font&gt;" style="text;html=1;strokeColor=none;fillColor=none;align=left;verticalAlign=middle;whiteSpace=wrap;rounded=0;shadow=0;dashed=1;fontStyle=1;fontSize=12;" parent="6CJWkMy-3zw3GvHLBf_q-41" vertex="1">
          <mxGeometry x="60" y="64" width="170" height="20" as="geometry" />
        </mxCell>
        <mxCell id="6CJWkMy-3zw3GvHLBf_q-46" value="" style="rounded=0;whiteSpace=wrap;html=1;shadow=0;strokeColor=none;strokeWidth=1;fillColor=#87BA6A;" parent="6CJWkMy-3zw3GvHLBf_q-41" vertex="1">
          <mxGeometry x="15" y="95" width="35" height="20" as="geometry" />
        </mxCell>
        <mxCell id="6CJWkMy-3zw3GvHLBf_q-47" value="&lt;font style=&quot;font-size: 12px;&quot;&gt;App Support - Chris Dowds&lt;/font&gt;" style="text;html=1;strokeColor=none;fillColor=none;align=left;verticalAlign=middle;whiteSpace=wrap;rounded=0;shadow=0;dashed=1;fontStyle=1;fontSize=12;" parent="6CJWkMy-3zw3GvHLBf_q-41" vertex="1">
          <mxGeometry x="60" y="95" width="160" height="20" as="geometry" />
        </mxCell>
        <mxCell id="6CJWkMy-3zw3GvHLBf_q-48" value="" style="whiteSpace=wrap;html=1;shadow=0;strokeColor=none;fillColor=#FFCC99;dashed=1;verticalAlign=top;" parent="6CJWkMy-3zw3GvHLBf_q-41" vertex="1">
          <mxGeometry x="15" y="126" width="35" height="20" as="geometry" />
        </mxCell>
        <mxCell id="6CJWkMy-3zw3GvHLBf_q-49" value="&lt;font style=&quot;font-size: 12px;&quot;&gt;Development - Sophie Tudor&lt;/font&gt;" style="text;html=1;strokeColor=none;fillColor=none;align=left;verticalAlign=middle;whiteSpace=wrap;rounded=0;shadow=0;dashed=1;fontStyle=1;fontSize=12;" parent="6CJWkMy-3zw3GvHLBf_q-41" vertex="1">
          <mxGeometry x="60" y="126" width="170" height="20" as="geometry" />
        </mxCell>
        <mxCell id="6CJWkMy-3zw3GvHLBf_q-50" value="" style="whiteSpace=wrap;html=1;shadow=0;strokeColor=none;fillColor=#B3B3B3;dashed=1;verticalAlign=top;" parent="6CJWkMy-3zw3GvHLBf_q-41" vertex="1">
          <mxGeometry x="15" y="156" width="35" height="20" as="geometry" />
        </mxCell>
        <mxCell id="6CJWkMy-3zw3GvHLBf_q-51" value="&lt;font style=&quot;font-size: 12px&quot;&gt;Linux &amp;amp; DB Support - Chris Raward&lt;/font&gt;" style="text;html=1;strokeColor=none;fillColor=none;align=left;verticalAlign=middle;whiteSpace=wrap;rounded=0;shadow=0;dashed=1;fontSize=12;fontStyle=1" parent="6CJWkMy-3zw3GvHLBf_q-41" vertex="1">
          <mxGeometry x="60" y="156" width="180" height="20" as="geometry" />
        </mxCell>
        <mxCell id="6CJWkMy-3zw3GvHLBf_q-52" value="" style="whiteSpace=wrap;html=1;shadow=0;strokeColor=none;fillColor=#612744;verticalAlign=middle;rounded=0;strokeWidth=1;" parent="6CJWkMy-3zw3GvHLBf_q-41" vertex="1">
          <mxGeometry x="15" y="186" width="35" height="20" as="geometry" />
        </mxCell>
        <mxCell id="6CJWkMy-3zw3GvHLBf_q-53" value="&lt;font style=&quot;font-size: 12px;&quot;&gt;External provider&lt;/font&gt;" style="text;html=1;strokeColor=none;fillColor=none;align=left;verticalAlign=middle;whiteSpace=wrap;rounded=0;shadow=0;dashed=1;fontSize=12;fontStyle=1" parent="6CJWkMy-3zw3GvHLBf_q-41" vertex="1">
          <mxGeometry x="60" y="186" width="170" height="20" as="geometry" />
        </mxCell>
        <mxCell id="6CJWkMy-3zw3GvHLBf_q-54" value="" style="rounded=1;whiteSpace=wrap;html=1;shadow=0;strokeColor=none;strokeWidth=1;fillColor=none;" parent="6CJWkMy-3zw3GvHLBf_q-1" vertex="1">
          <mxGeometry x="-1150" y="-60" width="80" height="660" as="geometry" />
        </mxCell>
        <mxCell id="6CJWkMy-3zw3GvHLBf_q-55" value="" style="rounded=0;whiteSpace=wrap;html=1;shadow=0;strokeColor=none;strokeWidth=1;fillColor=none;" parent="6CJWkMy-3zw3GvHLBf_q-1" vertex="1">
          <mxGeometry x="-1050" y="-290" width="700" height="70" as="geometry" />
        </mxCell>
        <mxCell id="6CJWkMy-3zw3GvHLBf_q-56" value="" style="rounded=1;whiteSpace=wrap;html=1;shadow=0;strokeColor=none;strokeWidth=1;fillColor=none;" parent="6CJWkMy-3zw3GvHLBf_q-1" vertex="1">
          <mxGeometry x="-230" y="780" width="340" height="60" as="geometry" />
        </mxCell>
        <mxCell id="6CJWkMy-3zw3GvHLBf_q-57" value="" style="rounded=1;whiteSpace=wrap;html=1;shadow=0;strokeColor=none;strokeWidth=1;fillColor=none;" parent="6CJWkMy-3zw3GvHLBf_q-1" vertex="1">
          <mxGeometry x="190" y="190" width="120" height="230" as="geometry" />
        </mxCell>
        <mxCell id="6CJWkMy-3zw3GvHLBf_q-58" value="&lt;b&gt;&lt;font style=&quot;font-size: 14px&quot; color=&quot;#4a1e34&quot;&gt;Sales System,&amp;nbsp;&lt;/font&gt;&lt;/b&gt;&lt;b&gt;&lt;font color=&quot;#4a1e34&quot; style=&quot;font-size: 14px&quot;&gt;FCTS&lt;/font&gt;&lt;/b&gt;" style="text;html=1;strokeColor=none;fillColor=none;align=center;verticalAlign=middle;whiteSpace=wrap;rounded=0;" parent="6CJWkMy-3zw3GvHLBf_q-1" vertex="1">
          <mxGeometry x="-910" y="-140" width="547" height="20" as="geometry" />
        </mxCell>
      </root>
    </mxGraphModel>
  </diagram>
  <diagram id="XLi1qnojAq1NZj7eqKdS" name="TPP Login">
    <mxGraphModel dx="2978" dy="1648" grid="1" gridSize="10" guides="1" tooltips="1" connect="1" arrows="1" fold="1" page="1" pageScale="1" pageWidth="850" pageHeight="1100" math="0" shadow="0">
      <root>
        <mxCell id="Jfn-Ve2mknfnSqzE856o-0" />
        <mxCell id="Jfn-Ve2mknfnSqzE856o-1" parent="Jfn-Ve2mknfnSqzE856o-0" />
        <mxCell id="Jfn-Ve2mknfnSqzE856o-2" value="CBS&amp;nbsp;" style="shape=mxgraph.ibm.box;prType=enterprise;fontStyle=0;verticalAlign=top;align=left;spacingLeft=32;spacingTop=4;fillColor=#CCFFFF;rounded=0;whiteSpace=wrap;html=1;strokeColor=#4376BB;strokeWidth=1;dashed=0;container=1;spacing=-4;collapsible=0;expand=0;recursiveResize=0;perimeterSpacing=0;shadow=0;" parent="Jfn-Ve2mknfnSqzE856o-1" vertex="1">
          <mxGeometry x="-1015" y="-50" width="730" height="650" as="geometry" />
        </mxCell>
        <mxCell id="brUSfOiVF2S3ufIDwnpO-9" style="edgeStyle=orthogonalEdgeStyle;rounded=0;orthogonalLoop=1;jettySize=auto;html=1;exitX=0;exitY=0.5;exitDx=0;exitDy=0;entryX=0.5;entryY=0;entryDx=0;entryDy=0;jumpStyle=gap;strokeColor=#808080;strokeWidth=2;endFill=1;endSize=4;startFill=0;startArrow=none;startSize=4;" parent="Jfn-Ve2mknfnSqzE856o-2" source="Jfn-Ve2mknfnSqzE856o-5" target="brUSfOiVF2S3ufIDwnpO-2" edge="1">
          <mxGeometry relative="1" as="geometry">
            <Array as="points">
              <mxPoint x="518" y="140" />
              <mxPoint x="518" y="10" />
              <mxPoint x="423" y="10" />
            </Array>
          </mxGeometry>
        </mxCell>
        <mxCell id="brUSfOiVF2S3ufIDwnpO-2" value="" style="rounded=0;whiteSpace=wrap;html=1;fillColor=#FFFFFF;dashed=1;strokeColor=#006600;" parent="Jfn-Ve2mknfnSqzE856o-2" vertex="1">
          <mxGeometry x="353" y="90" width="140" height="90" as="geometry" />
        </mxCell>
        <mxCell id="Jfn-Ve2mknfnSqzE856o-3" value="&lt;font color=&quot;#ffffff&quot;&gt;&lt;b&gt;External F5&lt;/b&gt;&lt;/font&gt;" style="rounded=0;whiteSpace=wrap;html=1;shadow=0;strokeColor=none;strokeWidth=1;fillColor=#FF3333;" parent="Jfn-Ve2mknfnSqzE856o-2" vertex="1">
          <mxGeometry x="35" y="30" width="640" height="30" as="geometry" />
        </mxCell>
        <mxCell id="Jfn-Ve2mknfnSqzE856o-4" style="edgeStyle=orthogonalEdgeStyle;rounded=0;orthogonalLoop=1;jettySize=auto;html=1;entryX=0.75;entryY=0;entryDx=0;entryDy=0;startArrow=none;startSize=4;endArrow=classic;endFill=1;endSize=4;strokeColor=#808080;strokeWidth=2;startFill=0;" parent="Jfn-Ve2mknfnSqzE856o-2" source="Jfn-Ve2mknfnSqzE856o-5" target="Jfn-Ve2mknfnSqzE856o-9" edge="1">
          <mxGeometry relative="1" as="geometry">
            <Array as="points">
              <mxPoint x="600" y="280" />
              <mxPoint x="320" y="280" />
            </Array>
          </mxGeometry>
        </mxCell>
        <mxCell id="Jfn-Ve2mknfnSqzE856o-5" value="&lt;b style=&quot;color: rgb(255 , 255 , 255)&quot;&gt;API Gateway - External&lt;/b&gt;" style="rounded=0;whiteSpace=wrap;html=1;shadow=0;strokeColor=none;strokeWidth=1;fillColor=#007EFF;" parent="Jfn-Ve2mknfnSqzE856o-2" vertex="1">
          <mxGeometry x="543" y="110" width="120" height="60" as="geometry" />
        </mxCell>
        <mxCell id="Jfn-Ve2mknfnSqzE856o-6" style="edgeStyle=orthogonalEdgeStyle;rounded=0;jumpStyle=gap;orthogonalLoop=1;jettySize=auto;html=1;entryX=0.75;entryY=0;entryDx=0;entryDy=0;startArrow=none;startFill=0;startSize=4;endArrow=classic;endFill=1;endSize=4;strokeColor=#808080;strokeWidth=2;" parent="Jfn-Ve2mknfnSqzE856o-2" source="Jfn-Ve2mknfnSqzE856o-7" target="Jfn-Ve2mknfnSqzE856o-10" edge="1">
          <mxGeometry relative="1" as="geometry">
            <Array as="points">
              <mxPoint x="255" y="190" />
              <mxPoint x="580" y="190" />
            </Array>
          </mxGeometry>
        </mxCell>
        <mxCell id="cjAKysGyEAJSmZqAiXZl-1" style="edgeStyle=orthogonalEdgeStyle;rounded=0;orthogonalLoop=1;jettySize=auto;html=1;exitX=1;exitY=0.75;exitDx=0;exitDy=0;entryX=0;entryY=0.75;entryDx=0;entryDy=0;startArrow=none;startFill=0;endArrow=classic;endFill=1;strokeColor=#808080;strokeWidth=2;endSize=4;startSize=4;" parent="Jfn-Ve2mknfnSqzE856o-2" source="Jfn-Ve2mknfnSqzE856o-7" target="brUSfOiVF2S3ufIDwnpO-2" edge="1">
          <mxGeometry relative="1" as="geometry">
            <Array as="points">
              <mxPoint x="220" y="158" />
              <mxPoint x="287" y="158" />
            </Array>
          </mxGeometry>
        </mxCell>
        <mxCell id="Jfn-Ve2mknfnSqzE856o-7" value="&lt;font color=&quot;#ffffff&quot;&gt;&lt;b&gt;Online Services - .Net&lt;/b&gt;&lt;/font&gt;" style="rounded=0;whiteSpace=wrap;html=1;shadow=0;strokeColor=none;strokeWidth=1;fillColor=#87BA6A;" parent="Jfn-Ve2mknfnSqzE856o-2" vertex="1">
          <mxGeometry x="35" y="110" width="185" height="60" as="geometry" />
        </mxCell>
        <mxCell id="Jfn-Ve2mknfnSqzE856o-8" style="edgeStyle=orthogonalEdgeStyle;rounded=0;orthogonalLoop=1;jettySize=auto;html=1;exitX=1;exitY=0.5;exitDx=0;exitDy=0;startArrow=none;startSize=4;endArrow=classic;endFill=1;endSize=4;strokeColor=#808080;strokeWidth=2;startFill=0;" parent="Jfn-Ve2mknfnSqzE856o-2" source="Jfn-Ve2mknfnSqzE856o-9" target="Jfn-Ve2mknfnSqzE856o-10" edge="1">
          <mxGeometry relative="1" as="geometry">
            <Array as="points">
              <mxPoint x="430" y="401" />
              <mxPoint x="430" y="290" />
              <mxPoint x="540" y="290" />
            </Array>
          </mxGeometry>
        </mxCell>
        <mxCell id="Jfn-Ve2mknfnSqzE856o-9" value="&lt;font color=&quot;#ffffff&quot;&gt;&lt;b&gt;Integration Services - .Net&lt;/b&gt;&lt;/font&gt;" style="rounded=0;whiteSpace=wrap;html=1;shadow=0;strokeColor=none;strokeWidth=1;fillColor=#87BA6A;" parent="Jfn-Ve2mknfnSqzE856o-2" vertex="1">
          <mxGeometry x="50" y="371" width="360" height="60" as="geometry" />
        </mxCell>
        <mxCell id="4u4DWrWmQDc8zgySXK0c-7" style="edgeStyle=orthogonalEdgeStyle;rounded=0;orthogonalLoop=1;jettySize=auto;html=1;exitX=0.75;exitY=1;exitDx=0;exitDy=0;strokeColor=#808080;strokeWidth=2;endFill=1;endArrow=classic;endSize=4;startArrow=none;startSize=4;startFill=0;" parent="Jfn-Ve2mknfnSqzE856o-2" source="Jfn-Ve2mknfnSqzE856o-10" target="4u4DWrWmQDc8zgySXK0c-4" edge="1">
          <mxGeometry relative="1" as="geometry" />
        </mxCell>
        <mxCell id="Jfn-Ve2mknfnSqzE856o-10" value="&lt;b style=&quot;color: rgb(255 , 255 , 255)&quot;&gt;IIB&lt;/b&gt;" style="rounded=0;whiteSpace=wrap;html=1;shadow=0;strokeColor=none;strokeWidth=1;fillColor=#007EFF;" parent="Jfn-Ve2mknfnSqzE856o-2" vertex="1">
          <mxGeometry x="460" y="371" width="150" height="60" as="geometry" />
        </mxCell>
        <mxCell id="Jfn-Ve2mknfnSqzE856o-11" value="&lt;font color=&quot;#ffffff&quot;&gt;&lt;b&gt;Internal F5&lt;/b&gt;&lt;/font&gt;" style="rounded=0;whiteSpace=wrap;html=1;shadow=0;strokeColor=none;strokeWidth=1;fillColor=#FF3333;" parent="Jfn-Ve2mknfnSqzE856o-2" vertex="1">
          <mxGeometry x="50" y="310" width="620" height="20" as="geometry" />
        </mxCell>
        <mxCell id="Jfn-Ve2mknfnSqzE856o-12" value="CBS Cloud" style="shape=mxgraph.ibm.box;prType=vpc;fontStyle=0;verticalAlign=top;align=left;spacingLeft=32;spacingTop=4;fillColor=none;rounded=0;whiteSpace=wrap;html=1;strokeColor=#3333FF;strokeWidth=1;dashed=1;container=1;spacing=-4;collapsible=0;expand=0;recursiveResize=0;" parent="Jfn-Ve2mknfnSqzE856o-2" vertex="1">
          <mxGeometry x="280" y="493" width="350" height="106" as="geometry" />
        </mxCell>
        <mxCell id="Jfn-Ve2mknfnSqzE856o-13" value="&lt;b style=&quot;color: rgb(255 , 255 , 255)&quot;&gt;Gemalto&lt;/b&gt;" style="rounded=0;whiteSpace=wrap;html=1;shadow=0;strokeColor=none;strokeWidth=1;fillColor=#007EFF;" parent="Jfn-Ve2mknfnSqzE856o-12" vertex="1">
          <mxGeometry x="40" y="23" width="120" height="60" as="geometry" />
        </mxCell>
        <mxCell id="Jfn-Ve2mknfnSqzE856o-14" value="" style="html=1;aspect=fixed;strokeColor=none;shadow=0;align=center;verticalAlign=top;fillColor=#B3B3B3;shape=mxgraph.gcp2.cloud_monitoring;dashed=1;" parent="Jfn-Ve2mknfnSqzE856o-12" vertex="1">
          <mxGeometry x="200" y="20" width="53.55" height="59.5" as="geometry" />
        </mxCell>
        <mxCell id="Jfn-Ve2mknfnSqzE856o-15" value="" style="html=1;aspect=fixed;strokeColor=none;shadow=0;align=center;verticalAlign=top;fillColor=#B3B3B3;shape=mxgraph.gcp2.cloud_monitoring;dashed=1;" parent="Jfn-Ve2mknfnSqzE856o-12" vertex="1">
          <mxGeometry x="280" y="20" width="53.55" height="59.5" as="geometry" />
        </mxCell>
        <mxCell id="Jfn-Ve2mknfnSqzE856o-16" value="&lt;font style=&quot;font-size: 10px&quot;&gt;CBSAD&lt;/font&gt;" style="text;html=1;strokeColor=none;fillColor=none;align=center;verticalAlign=middle;whiteSpace=wrap;rounded=0;shadow=0;dashed=1;" parent="Jfn-Ve2mknfnSqzE856o-12" vertex="1">
          <mxGeometry x="205" y="80" width="40" height="20" as="geometry" />
        </mxCell>
        <mxCell id="Jfn-Ve2mknfnSqzE856o-17" value="&lt;font style=&quot;font-size: 10px&quot;&gt;CBSAUDIT&lt;/font&gt;" style="text;html=1;strokeColor=none;fillColor=none;align=center;verticalAlign=middle;whiteSpace=wrap;rounded=0;shadow=0;dashed=1;" parent="Jfn-Ve2mknfnSqzE856o-12" vertex="1">
          <mxGeometry x="286.78" y="80" width="40" height="20" as="geometry" />
        </mxCell>
        <mxCell id="Jfn-Ve2mknfnSqzE856o-18" value="&lt;font color=&quot;#ffffff&quot;&gt;20&lt;/font&gt;" style="ellipse;whiteSpace=wrap;html=1;aspect=fixed;shadow=0;strokeColor=none;strokeWidth=1;fillColor=#33001A;" parent="Jfn-Ve2mknfnSqzE856o-12" vertex="1">
          <mxGeometry x="180" y="7" width="20" height="20" as="geometry" />
        </mxCell>
        <mxCell id="Jfn-Ve2mknfnSqzE856o-19" value="" style="html=1;aspect=fixed;strokeColor=none;shadow=0;align=center;verticalAlign=top;fillColor=#FFCC99;shape=mxgraph.gcp2.cloud_monitoring;dashed=1;" parent="Jfn-Ve2mknfnSqzE856o-2" vertex="1">
          <mxGeometry x="104" y="500" width="70.2" height="78" as="geometry" />
        </mxCell>
        <mxCell id="Jfn-Ve2mknfnSqzE856o-20" value="&lt;font style=&quot;font-size: 10px&quot;&gt;SUMMIT&lt;/font&gt;" style="text;html=1;strokeColor=none;fillColor=none;align=center;verticalAlign=middle;whiteSpace=wrap;rounded=0;shadow=0;dashed=1;" parent="Jfn-Ve2mknfnSqzE856o-2" vertex="1">
          <mxGeometry x="119.09999999999997" y="578" width="40" height="20" as="geometry" />
        </mxCell>
        <mxCell id="Jfn-Ve2mknfnSqzE856o-21" value="CBS Cloud" style="shape=mxgraph.ibm.box;prType=vpc;fontStyle=0;verticalAlign=top;align=left;spacingLeft=32;spacingTop=4;fillColor=none;rounded=0;whiteSpace=wrap;html=1;strokeColor=#3333FF;strokeWidth=1;dashed=1;container=1;spacing=-4;collapsible=0;expand=0;recursiveResize=0;" parent="Jfn-Ve2mknfnSqzE856o-2" vertex="1">
          <mxGeometry x="35" y="203" width="515" height="60" as="geometry" />
        </mxCell>
        <mxCell id="Jfn-Ve2mknfnSqzE856o-22" value="&lt;b style=&quot;color: rgb(255 , 255 , 255)&quot;&gt;API Gateway - Internal&lt;/b&gt;" style="rounded=0;whiteSpace=wrap;html=1;shadow=0;strokeColor=none;strokeWidth=1;fillColor=#007EFF;" parent="Jfn-Ve2mknfnSqzE856o-21" vertex="1">
          <mxGeometry x="95" y="10" width="195.9" height="40" as="geometry" />
        </mxCell>
        <mxCell id="Jfn-Ve2mknfnSqzE856o-35" value="&lt;font color=&quot;#ffffff&quot;&gt;9&lt;/font&gt;" style="ellipse;whiteSpace=wrap;html=1;aspect=fixed;shadow=0;strokeColor=none;strokeWidth=1;fillColor=#33001A;" parent="Jfn-Ve2mknfnSqzE856o-21" vertex="1">
          <mxGeometry x="310" y="30" width="20" height="20" as="geometry" />
        </mxCell>
        <mxCell id="Jfn-Ve2mknfnSqzE856o-23" value="" style="endArrow=none;startArrow=classic;html=1;entryX=0.826;entryY=1.04;entryDx=0;entryDy=0;entryPerimeter=0;rounded=0;endSize=4;startSize=4;strokeWidth=2;strokeColor=#808080;endFill=0;exitX=0.177;exitY=0.027;exitDx=0;exitDy=0;exitPerimeter=0;" parent="Jfn-Ve2mknfnSqzE856o-2" edge="1">
          <mxGeometry width="50" height="50" relative="1" as="geometry">
            <mxPoint x="575.2399999999998" y="111.61999999999989" as="sourcePoint" />
            <mxPoint x="574.6399999999999" y="61.200000000000045" as="targetPoint" />
          </mxGeometry>
        </mxCell>
        <mxCell id="Jfn-Ve2mknfnSqzE856o-24" value="" style="endArrow=none;startArrow=classic;html=1;entryX=0.618;entryY=1.015;entryDx=0;entryDy=0;entryPerimeter=0;rounded=0;endSize=4;startSize=4;strokeWidth=2;strokeColor=#808080;endFill=0;" parent="Jfn-Ve2mknfnSqzE856o-2" edge="1">
          <mxGeometry width="50" height="50" relative="1" as="geometry">
            <mxPoint x="190" y="210" as="sourcePoint" />
            <mxPoint x="189.9999999999997" y="170" as="targetPoint" />
          </mxGeometry>
        </mxCell>
        <mxCell id="Jfn-Ve2mknfnSqzE856o-25" value="" style="endArrow=none;startArrow=classic;html=1;entryX=0.25;entryY=1;entryDx=0;entryDy=0;rounded=0;endSize=4;startSize=4;strokeWidth=2;strokeColor=#808080;endFill=0;" parent="Jfn-Ve2mknfnSqzE856o-2" source="Jfn-Ve2mknfnSqzE856o-19" target="Jfn-Ve2mknfnSqzE856o-9" edge="1">
          <mxGeometry width="50" height="50" relative="1" as="geometry">
            <mxPoint x="180" y="450" as="sourcePoint" />
            <mxPoint x="179.99999999999955" y="420" as="targetPoint" />
          </mxGeometry>
        </mxCell>
        <mxCell id="Jfn-Ve2mknfnSqzE856o-26" value="" style="endArrow=none;startArrow=classic;html=1;rounded=0;endSize=4;startSize=4;strokeWidth=2;strokeColor=#808080;endFill=0;exitX=0.5;exitY=0;exitDx=0;exitDy=0;entryX=0.914;entryY=0.997;entryDx=0;entryDy=0;entryPerimeter=0;" parent="Jfn-Ve2mknfnSqzE856o-2" source="Jfn-Ve2mknfnSqzE856o-13" target="Jfn-Ve2mknfnSqzE856o-9" edge="1">
          <mxGeometry width="50" height="50" relative="1" as="geometry">
            <mxPoint x="162.50420168067194" y="510" as="sourcePoint" />
            <mxPoint x="380" y="440" as="targetPoint" />
          </mxGeometry>
        </mxCell>
        <mxCell id="Jfn-Ve2mknfnSqzE856o-27" value="" style="endArrow=none;startArrow=classic;html=1;rounded=0;endSize=4;startSize=4;strokeWidth=2;strokeColor=#808080;endFill=0;exitX=0.347;exitY=0.03;exitDx=0;exitDy=0;exitPerimeter=0;" parent="Jfn-Ve2mknfnSqzE856o-2" source="Jfn-Ve2mknfnSqzE856o-14" edge="1">
          <mxGeometry width="50" height="50" relative="1" as="geometry">
            <mxPoint x="390" y="513" as="sourcePoint" />
            <mxPoint x="395" y="430" as="targetPoint" />
          </mxGeometry>
        </mxCell>
        <mxCell id="Jfn-Ve2mknfnSqzE856o-28" value="" style="endArrow=none;startArrow=classic;html=1;rounded=0;endSize=4;startSize=4;strokeWidth=2;strokeColor=#808080;endFill=0;entryX=0.5;entryY=1;entryDx=0;entryDy=0;" parent="Jfn-Ve2mknfnSqzE856o-2" source="Jfn-Ve2mknfnSqzE856o-15" target="Jfn-Ve2mknfnSqzE856o-10" edge="1">
          <mxGeometry width="50" height="50" relative="1" as="geometry">
            <mxPoint x="586" y="500" as="sourcePoint" />
            <mxPoint x="586" y="430" as="targetPoint" />
          </mxGeometry>
        </mxCell>
        <mxCell id="Jfn-Ve2mknfnSqzE856o-29" value="" style="endArrow=none;startArrow=classic;html=1;entryX=0.618;entryY=1.015;entryDx=0;entryDy=0;entryPerimeter=0;rounded=0;endSize=4;startSize=4;strokeWidth=2;strokeColor=#808080;endFill=0;" parent="Jfn-Ve2mknfnSqzE856o-2" edge="1">
          <mxGeometry width="50" height="50" relative="1" as="geometry">
            <mxPoint x="626.1600000000001" y="110" as="sourcePoint" />
            <mxPoint x="625.9999999999998" y="60" as="targetPoint" />
          </mxGeometry>
        </mxCell>
        <mxCell id="Jfn-Ve2mknfnSqzE856o-30" style="edgeStyle=orthogonalEdgeStyle;rounded=0;jumpStyle=gap;orthogonalLoop=1;jettySize=auto;html=1;entryX=0.25;entryY=0;entryDx=0;entryDy=0;startArrow=none;startFill=0;startSize=4;endArrow=none;endFill=0;endSize=4;strokeColor=#808080;strokeWidth=2;" parent="Jfn-Ve2mknfnSqzE856o-2" target="Jfn-Ve2mknfnSqzE856o-11" edge="1">
          <mxGeometry relative="1" as="geometry">
            <mxPoint x="205" y="253" as="sourcePoint" />
            <Array as="points">
              <mxPoint x="205" y="253" />
            </Array>
          </mxGeometry>
        </mxCell>
        <mxCell id="Jfn-Ve2mknfnSqzE856o-31" value="" style="endArrow=none;startArrow=classic;html=1;entryX=0.618;entryY=1.015;entryDx=0;entryDy=0;entryPerimeter=0;rounded=0;endSize=4;startSize=4;strokeWidth=2;strokeColor=#808080;endFill=0;" parent="Jfn-Ve2mknfnSqzE856o-2" edge="1">
          <mxGeometry width="50" height="50" relative="1" as="geometry">
            <mxPoint x="205" y="370" as="sourcePoint" />
            <mxPoint x="204.99999999999955" y="330" as="targetPoint" />
          </mxGeometry>
        </mxCell>
        <mxCell id="Jfn-Ve2mknfnSqzE856o-32" value="&lt;font color=&quot;#ffffff&quot;&gt;1&lt;/font&gt;" style="ellipse;whiteSpace=wrap;html=1;aspect=fixed;shadow=0;strokeColor=none;strokeWidth=1;fillColor=#33001A;" parent="Jfn-Ve2mknfnSqzE856o-2" vertex="1">
          <mxGeometry x="200" width="20" height="20" as="geometry" />
        </mxCell>
        <mxCell id="Jfn-Ve2mknfnSqzE856o-33" value="&lt;font color=&quot;#ffffff&quot;&gt;2&lt;/font&gt;" style="ellipse;whiteSpace=wrap;html=1;aspect=fixed;shadow=0;strokeColor=none;strokeWidth=1;fillColor=#33001A;" parent="Jfn-Ve2mknfnSqzE856o-2" vertex="1">
          <mxGeometry x="548" y="74" width="20" height="20" as="geometry" />
        </mxCell>
        <mxCell id="Jfn-Ve2mknfnSqzE856o-34" value="&lt;font color=&quot;#ffffff&quot;&gt;8&lt;/font&gt;" style="ellipse;whiteSpace=wrap;html=1;aspect=fixed;shadow=0;strokeColor=none;strokeWidth=1;fillColor=#33001A;" parent="Jfn-Ve2mknfnSqzE856o-2" vertex="1">
          <mxGeometry x="193" y="180" width="20" height="20" as="geometry" />
        </mxCell>
        <mxCell id="Jfn-Ve2mknfnSqzE856o-36" value="&lt;font color=&quot;#ffffff&quot;&gt;13&lt;/font&gt;" style="ellipse;whiteSpace=wrap;html=1;aspect=fixed;shadow=0;strokeColor=none;strokeWidth=1;fillColor=#33001A;" parent="Jfn-Ve2mknfnSqzE856o-2" vertex="1">
          <mxGeometry x="178.2" y="349" width="20" height="20" as="geometry" />
        </mxCell>
        <mxCell id="Jfn-Ve2mknfnSqzE856o-37" value="&lt;font color=&quot;#ffffff&quot;&gt;14a&lt;/font&gt;" style="ellipse;whiteSpace=wrap;html=1;aspect=fixed;shadow=0;strokeColor=none;strokeWidth=1;fillColor=#33001A;" parent="Jfn-Ve2mknfnSqzE856o-2" vertex="1">
          <mxGeometry x="150" y="454" width="20" height="20" as="geometry" />
        </mxCell>
        <mxCell id="Jfn-Ve2mknfnSqzE856o-38" value="&lt;font color=&quot;#ffffff&quot;&gt;14b&lt;/font&gt;" style="ellipse;whiteSpace=wrap;html=1;aspect=fixed;shadow=0;strokeColor=none;strokeWidth=1;fillColor=#33001A;" parent="Jfn-Ve2mknfnSqzE856o-2" vertex="1">
          <mxGeometry x="355" y="444" width="20" height="20" as="geometry" />
        </mxCell>
        <mxCell id="Jfn-Ve2mknfnSqzE856o-39" value="&lt;font color=&quot;#ffffff&quot;&gt;14c&lt;/font&gt;" style="ellipse;whiteSpace=wrap;html=1;aspect=fixed;shadow=0;strokeColor=none;strokeWidth=1;fillColor=#33001A;" parent="Jfn-Ve2mknfnSqzE856o-2" vertex="1">
          <mxGeometry x="470" y="473" width="20" height="20" as="geometry" />
        </mxCell>
        <mxCell id="Jfn-Ve2mknfnSqzE856o-40" value="&lt;font color=&quot;#ffffff&quot;&gt;14d&lt;/font&gt;" style="ellipse;whiteSpace=wrap;html=1;aspect=fixed;shadow=0;strokeColor=none;strokeWidth=1;fillColor=#33001A;" parent="Jfn-Ve2mknfnSqzE856o-2" vertex="1">
          <mxGeometry x="655" y="428" width="20" height="20" as="geometry" />
        </mxCell>
        <mxCell id="Jfn-Ve2mknfnSqzE856o-41" value="&lt;font color=&quot;#ffffff&quot;&gt;5&lt;/font&gt;" style="ellipse;whiteSpace=wrap;html=1;aspect=fixed;shadow=0;strokeColor=none;strokeWidth=1;fillColor=#33001A;" parent="Jfn-Ve2mknfnSqzE856o-2" vertex="1">
          <mxGeometry x="590" y="290" width="20" height="20" as="geometry" />
        </mxCell>
        <mxCell id="Jfn-Ve2mknfnSqzE856o-42" value="&lt;font color=&quot;#ffffff&quot;&gt;6&lt;/font&gt;" style="ellipse;whiteSpace=wrap;html=1;aspect=fixed;shadow=0;strokeColor=none;strokeWidth=1;fillColor=#33001A;" parent="Jfn-Ve2mknfnSqzE856o-2" vertex="1">
          <mxGeometry x="590" y="350" width="20" height="20" as="geometry" />
        </mxCell>
        <mxCell id="Jfn-Ve2mknfnSqzE856o-43" value="&lt;font color=&quot;#ffffff&quot;&gt;14g&lt;/font&gt;" style="ellipse;whiteSpace=wrap;html=1;aspect=fixed;shadow=0;strokeColor=none;strokeWidth=1;fillColor=#33001A;" parent="Jfn-Ve2mknfnSqzE856o-2" vertex="1">
          <mxGeometry x="510" y="350" width="20" height="20" as="geometry" />
        </mxCell>
        <mxCell id="Jfn-Ve2mknfnSqzE856o-44" value="&lt;font color=&quot;#ffffff&quot;&gt;16&lt;/font&gt;" style="ellipse;whiteSpace=wrap;html=1;aspect=fixed;shadow=0;strokeColor=none;strokeWidth=1;fillColor=#33001A;" parent="Jfn-Ve2mknfnSqzE856o-2" vertex="1">
          <mxGeometry x="600" width="20" height="20" as="geometry" />
        </mxCell>
        <mxCell id="Jfn-Ve2mknfnSqzE856o-45" value="&lt;font color=&quot;#ffffff&quot;&gt;17&lt;/font&gt;" style="ellipse;whiteSpace=wrap;html=1;aspect=fixed;shadow=0;strokeColor=none;strokeWidth=1;fillColor=#33001A;" parent="Jfn-Ve2mknfnSqzE856o-2" vertex="1">
          <mxGeometry x="633" y="80" width="20" height="20" as="geometry" />
        </mxCell>
        <mxCell id="Jfn-Ve2mknfnSqzE856o-46" value="&lt;font color=&quot;#ffffff&quot;&gt;18&lt;/font&gt;" style="ellipse;whiteSpace=wrap;html=1;aspect=fixed;shadow=0;strokeColor=none;strokeWidth=1;fillColor=#33001A;" parent="Jfn-Ve2mknfnSqzE856o-2" vertex="1">
          <mxGeometry x="330" y="350" width="20" height="20" as="geometry" />
        </mxCell>
        <mxCell id="Jfn-Ve2mknfnSqzE856o-47" value="&lt;font color=&quot;#ffffff&quot;&gt;19&lt;/font&gt;" style="ellipse;whiteSpace=wrap;html=1;aspect=fixed;shadow=0;strokeColor=none;strokeWidth=1;fillColor=#33001A;" parent="Jfn-Ve2mknfnSqzE856o-2" vertex="1">
          <mxGeometry x="355" y="473" width="20" height="20" as="geometry" />
        </mxCell>
        <mxCell id="brUSfOiVF2S3ufIDwnpO-0" value="&lt;b style=&quot;color: rgb(255 , 255 , 255)&quot;&gt;ISAM&lt;/b&gt;" style="rounded=0;whiteSpace=wrap;html=1;shadow=0;strokeColor=none;strokeWidth=1;fillColor=#87BA6A;" parent="Jfn-Ve2mknfnSqzE856o-2" vertex="1">
          <mxGeometry x="365" y="130" width="120" height="40" as="geometry" />
        </mxCell>
        <mxCell id="brUSfOiVF2S3ufIDwnpO-1" value="&lt;b style=&quot;color: rgb(255 , 255 , 255)&quot;&gt;WebSeal&lt;/b&gt;" style="rounded=0;whiteSpace=wrap;html=1;shadow=0;strokeColor=none;strokeWidth=1;fillColor=#87BA6A;" parent="Jfn-Ve2mknfnSqzE856o-2" vertex="1">
          <mxGeometry x="365" y="100" width="120" height="23" as="geometry" />
        </mxCell>
        <mxCell id="brUSfOiVF2S3ufIDwnpO-10" value="&lt;font color=&quot;#ffffff&quot;&gt;3&lt;/font&gt;" style="ellipse;whiteSpace=wrap;html=1;aspect=fixed;shadow=0;strokeColor=none;strokeWidth=1;fillColor=#33001A;" parent="Jfn-Ve2mknfnSqzE856o-2" vertex="1">
          <mxGeometry x="429" y="66" width="20" height="20" as="geometry" />
        </mxCell>
        <mxCell id="4u4DWrWmQDc8zgySXK0c-0" style="edgeStyle=orthogonalEdgeStyle;rounded=0;orthogonalLoop=1;jettySize=auto;html=1;exitX=0;exitY=0.5;exitDx=0;exitDy=0;entryX=0.5;entryY=0;entryDx=0;entryDy=0;jumpStyle=gap;strokeColor=#808080;strokeWidth=2;endFill=1;endSize=4;startFill=0;startArrow=none;startSize=4;" parent="Jfn-Ve2mknfnSqzE856o-2" source="brUSfOiVF2S3ufIDwnpO-2" target="Jfn-Ve2mknfnSqzE856o-7" edge="1">
          <mxGeometry relative="1" as="geometry">
            <Array as="points">
              <mxPoint x="305" y="135" />
              <mxPoint x="305" y="80" />
              <mxPoint x="128" y="80" />
            </Array>
            <mxPoint x="553" y="150" as="sourcePoint" />
            <mxPoint x="433" y="100" as="targetPoint" />
          </mxGeometry>
        </mxCell>
        <mxCell id="4u4DWrWmQDc8zgySXK0c-1" value="&lt;font color=&quot;#ffffff&quot;&gt;4&lt;/font&gt;" style="ellipse;whiteSpace=wrap;html=1;aspect=fixed;shadow=0;strokeColor=none;strokeWidth=1;fillColor=#33001A;" parent="Jfn-Ve2mknfnSqzE856o-2" vertex="1">
          <mxGeometry x="135" y="85" width="20" height="20" as="geometry" />
        </mxCell>
        <mxCell id="4u4DWrWmQDc8zgySXK0c-3" value="" style="endArrow=none;startArrow=classic;html=1;entryX=1;entryY=0.5;entryDx=0;entryDy=0;rounded=0;endSize=4;startSize=4;strokeWidth=2;strokeColor=#808080;endFill=0;exitX=0.188;exitY=-0.017;exitDx=0;exitDy=0;exitPerimeter=0;" parent="Jfn-Ve2mknfnSqzE856o-2" source="Jfn-Ve2mknfnSqzE856o-10" target="Jfn-Ve2mknfnSqzE856o-22" edge="1">
          <mxGeometry width="50" height="50" relative="1" as="geometry">
            <mxPoint x="200" y="220" as="sourcePoint" />
            <mxPoint x="199.99999999999955" y="180" as="targetPoint" />
            <Array as="points">
              <mxPoint x="485" y="233" />
            </Array>
          </mxGeometry>
        </mxCell>
        <mxCell id="4u4DWrWmQDc8zgySXK0c-4" value="" style="html=1;aspect=fixed;strokeColor=none;shadow=0;align=center;verticalAlign=top;fillColor=#FFCC99;shape=mxgraph.gcp2.cloud_monitoring;dashed=1;" parent="Jfn-Ve2mknfnSqzE856o-2" vertex="1">
          <mxGeometry x="653" y="509.25" width="53.55" height="59.5" as="geometry" />
        </mxCell>
        <mxCell id="4u4DWrWmQDc8zgySXK0c-5" value="&lt;font style=&quot;font-size: 10px&quot;&gt;Consent&lt;/font&gt;" style="text;html=1;strokeColor=none;fillColor=none;align=center;verticalAlign=middle;whiteSpace=wrap;rounded=0;shadow=0;dashed=1;" parent="Jfn-Ve2mknfnSqzE856o-2" vertex="1">
          <mxGeometry x="659.7799999999999" y="568.75" width="40" height="20" as="geometry" />
        </mxCell>
        <mxCell id="4u4DWrWmQDc8zgySXK0c-6" value="&lt;font color=&quot;#ffffff&quot;&gt;10&lt;/font&gt;" style="ellipse;whiteSpace=wrap;html=1;aspect=fixed;shadow=0;strokeColor=none;strokeWidth=1;fillColor=#33001A;" parent="Jfn-Ve2mknfnSqzE856o-2" vertex="1">
          <mxGeometry x="460" y="350" width="20" height="20" as="geometry" />
        </mxCell>
        <mxCell id="4u4DWrWmQDc8zgySXK0c-8" value="&lt;font color=&quot;#ffffff&quot;&gt;11&lt;/font&gt;" style="ellipse;whiteSpace=wrap;html=1;aspect=fixed;shadow=0;strokeColor=none;strokeWidth=1;fillColor=#33001A;" parent="Jfn-Ve2mknfnSqzE856o-2" vertex="1">
          <mxGeometry x="653" y="474" width="20" height="20" as="geometry" />
        </mxCell>
        <mxCell id="4u4DWrWmQDc8zgySXK0c-9" value="&lt;font color=&quot;#ffffff&quot;&gt;12&lt;/font&gt;" style="ellipse;whiteSpace=wrap;html=1;aspect=fixed;shadow=0;strokeColor=none;strokeWidth=1;fillColor=#33001A;" parent="Jfn-Ve2mknfnSqzE856o-2" vertex="1">
          <mxGeometry x="180" y="288" width="20" height="20" as="geometry" />
        </mxCell>
        <mxCell id="cjAKysGyEAJSmZqAiXZl-2" value="&lt;font color=&quot;#ffffff&quot;&gt;21&lt;/font&gt;" style="ellipse;whiteSpace=wrap;html=1;aspect=fixed;shadow=0;strokeColor=none;strokeWidth=1;fillColor=#33001A;" parent="Jfn-Ve2mknfnSqzE856o-2" vertex="1">
          <mxGeometry x="261" y="134" width="20" height="20" as="geometry" />
        </mxCell>
        <mxCell id="cjAKysGyEAJSmZqAiXZl-6" value="&lt;font color=&quot;#ffffff&quot;&gt;7&lt;/font&gt;" style="ellipse;whiteSpace=wrap;html=1;aspect=fixed;shadow=0;strokeColor=none;strokeWidth=1;fillColor=#33001A;" parent="Jfn-Ve2mknfnSqzE856o-2" vertex="1">
          <mxGeometry x="530" y="473" width="20" height="20" as="geometry" />
        </mxCell>
        <mxCell id="Jfn-Ve2mknfnSqzE856o-48" value="Cloud" style="shape=mxgraph.ibm.box;prType=vpc;fontStyle=0;verticalAlign=top;align=left;spacingLeft=32;spacingTop=4;fillColor=none;rounded=0;whiteSpace=wrap;html=1;strokeColor=#4376BB;strokeWidth=2;dashed=0;container=1;spacing=-4;collapsible=0;expand=0;recursiveResize=0;shadow=0;" parent="Jfn-Ve2mknfnSqzE856o-1" vertex="1">
          <mxGeometry x="-115" y="175" width="290" height="215" as="geometry" />
        </mxCell>
        <mxCell id="Jfn-Ve2mknfnSqzE856o-49" value="&lt;font color=&quot;#ffffff&quot;&gt;&lt;b&gt;Adobe DTM&lt;/b&gt;&lt;/font&gt;" style="rounded=0;whiteSpace=wrap;html=1;shadow=0;strokeColor=none;strokeWidth=1;fillColor=#007EFF;" parent="Jfn-Ve2mknfnSqzE856o-48" vertex="1">
          <mxGeometry x="190" y="37" width="90" height="60" as="geometry" />
        </mxCell>
        <mxCell id="Jfn-Ve2mknfnSqzE856o-50" value="&lt;b style=&quot;color: rgb(255 , 255 , 255)&quot;&gt;Netsize&lt;/b&gt;" style="rounded=0;whiteSpace=wrap;html=1;shadow=0;strokeColor=none;strokeWidth=1;fillColor=#612744;" parent="Jfn-Ve2mknfnSqzE856o-48" vertex="1">
          <mxGeometry x="30" y="37" width="100" height="60" as="geometry" />
        </mxCell>
        <mxCell id="Jfn-Ve2mknfnSqzE856o-51" value="&lt;b style=&quot;color: rgb(255 , 255 , 255)&quot;&gt;FPP&lt;/b&gt;" style="rounded=0;whiteSpace=wrap;html=1;shadow=0;strokeColor=none;strokeWidth=1;fillColor=#612744;" parent="Jfn-Ve2mknfnSqzE856o-48" vertex="1">
          <mxGeometry x="30" y="125" width="100" height="60" as="geometry" />
        </mxCell>
        <mxCell id="Jfn-Ve2mknfnSqzE856o-52" value="&lt;b style=&quot;color: rgb(255 , 255 , 255)&quot;&gt;Force Point&lt;/b&gt;" style="rounded=0;whiteSpace=wrap;html=1;shadow=0;strokeColor=none;strokeWidth=1;fillColor=#87BA6A;" parent="Jfn-Ve2mknfnSqzE856o-1" vertex="1">
          <mxGeometry x="-321" y="370" width="75" height="60" as="geometry" />
        </mxCell>
        <mxCell id="Jfn-Ve2mknfnSqzE856o-53" value="&lt;b&gt;&lt;font color=&quot;#000099&quot;&gt;Customer&lt;/font&gt;&lt;/b&gt;" style="rounded=0;whiteSpace=wrap;html=1;shadow=0;strokeColor=#000099;strokeWidth=1;fillColor=none;" parent="Jfn-Ve2mknfnSqzE856o-1" vertex="1">
          <mxGeometry x="-885" y="-120" width="120" height="40" as="geometry" />
        </mxCell>
        <mxCell id="Jfn-Ve2mknfnSqzE856o-54" value="" style="endArrow=none;startArrow=classic;html=1;entryX=0.618;entryY=1.015;entryDx=0;entryDy=0;entryPerimeter=0;exitX=0.263;exitY=-0.06;exitDx=0;exitDy=0;exitPerimeter=0;rounded=0;endSize=4;startSize=4;strokeWidth=2;strokeColor=#808080;endFill=0;" parent="Jfn-Ve2mknfnSqzE856o-1" edge="1">
          <mxGeometry width="50" height="50" relative="1" as="geometry">
            <mxPoint x="-823.6799999999998" y="-21.799999999999955" as="sourcePoint" />
            <mxPoint x="-822.8400000000001" y="-79.40000000000009" as="targetPoint" />
          </mxGeometry>
        </mxCell>
        <mxCell id="Jfn-Ve2mknfnSqzE856o-55" value="" style="endArrow=none;startArrow=classic;html=1;entryX=1;entryY=0.5;entryDx=0;entryDy=0;rounded=0;endSize=4;startSize=4;strokeWidth=2;strokeColor=#808080;endFill=0;exitX=0;exitY=0.5;exitDx=0;exitDy=0;" parent="Jfn-Ve2mknfnSqzE856o-1" source="Jfn-Ve2mknfnSqzE856o-51" target="Jfn-Ve2mknfnSqzE856o-52" edge="1">
          <mxGeometry width="50" height="50" relative="1" as="geometry">
            <mxPoint x="-865.6050420168067" y="460" as="sourcePoint" />
            <mxPoint x="-865" y="380" as="targetPoint" />
          </mxGeometry>
        </mxCell>
        <mxCell id="Jfn-Ve2mknfnSqzE856o-56" value="" style="endArrow=none;startArrow=classic;html=1;entryX=1;entryY=0.5;entryDx=0;entryDy=0;rounded=0;endSize=4;startSize=4;strokeWidth=2;strokeColor=#808080;endFill=0;exitX=0;exitY=0.5;exitDx=0;exitDy=0;" parent="Jfn-Ve2mknfnSqzE856o-1" source="Jfn-Ve2mknfnSqzE856o-50" target="Jfn-Ve2mknfnSqzE856o-52" edge="1">
          <mxGeometry width="50" height="50" relative="1" as="geometry">
            <mxPoint x="-75" y="340" as="sourcePoint" />
            <mxPoint x="-236" y="400" as="targetPoint" />
          </mxGeometry>
        </mxCell>
        <mxCell id="Jfn-Ve2mknfnSqzE856o-57" style="edgeStyle=orthogonalEdgeStyle;rounded=0;orthogonalLoop=1;jettySize=auto;html=1;startArrow=none;startSize=4;endArrow=classic;endFill=1;endSize=4;strokeColor=#808080;strokeWidth=2;startFill=0;exitX=0.5;exitY=0;exitDx=0;exitDy=0;" parent="Jfn-Ve2mknfnSqzE856o-1" source="Jfn-Ve2mknfnSqzE856o-50" edge="1">
          <mxGeometry relative="1" as="geometry">
            <mxPoint x="-425" y="-23" as="targetPoint" />
            <Array as="points">
              <mxPoint x="-35" y="-100" />
              <mxPoint x="-425" y="-100" />
            </Array>
            <mxPoint x="-70" y="212" as="sourcePoint" />
          </mxGeometry>
        </mxCell>
        <mxCell id="Jfn-Ve2mknfnSqzE856o-58" value="Legends" style="fontStyle=1;verticalAlign=top;align=center;spacingTop=-2;fillColor=none;rounded=0;whiteSpace=wrap;html=1;strokeColor=#4376BB;strokeWidth=1;dashed=0;container=1;collapsible=0;expand=0;recursiveResize=0;shadow=0;" parent="Jfn-Ve2mknfnSqzE856o-1" vertex="1">
          <mxGeometry x="-135" y="530" width="245" height="240" as="geometry" />
        </mxCell>
        <mxCell id="Jfn-Ve2mknfnSqzE856o-59" value="" style="rounded=0;whiteSpace=wrap;html=1;shadow=0;strokeColor=none;strokeWidth=1;fillColor=#FF3333;" parent="Jfn-Ve2mknfnSqzE856o-58" vertex="1">
          <mxGeometry x="15" y="35" width="35" height="20" as="geometry" />
        </mxCell>
        <mxCell id="Jfn-Ve2mknfnSqzE856o-60" value="&lt;font style=&quot;font-size: 12px;&quot;&gt;Networks - Carl Samual&lt;/font&gt;" style="text;html=1;strokeColor=none;fillColor=none;align=left;verticalAlign=middle;whiteSpace=wrap;rounded=0;shadow=0;dashed=1;fontSize=12;fontStyle=1" parent="Jfn-Ve2mknfnSqzE856o-58" vertex="1">
          <mxGeometry x="60" y="35" width="160" height="20" as="geometry" />
        </mxCell>
        <mxCell id="Jfn-Ve2mknfnSqzE856o-61" value="" style="rounded=0;whiteSpace=wrap;html=1;shadow=0;strokeColor=none;strokeWidth=1;fillColor=#007EFF;" parent="Jfn-Ve2mknfnSqzE856o-58" vertex="1">
          <mxGeometry x="15" y="64" width="35" height="20" as="geometry" />
        </mxCell>
        <mxCell id="Jfn-Ve2mknfnSqzE856o-62" value="&lt;font style=&quot;font-size: 12px;&quot;&gt;Middleware - Richard Walton&lt;/font&gt;" style="text;html=1;strokeColor=none;fillColor=none;align=left;verticalAlign=middle;whiteSpace=wrap;rounded=0;shadow=0;dashed=1;fontStyle=1;fontSize=12;" parent="Jfn-Ve2mknfnSqzE856o-58" vertex="1">
          <mxGeometry x="60" y="64" width="170" height="20" as="geometry" />
        </mxCell>
        <mxCell id="Jfn-Ve2mknfnSqzE856o-63" value="" style="rounded=0;whiteSpace=wrap;html=1;shadow=0;strokeColor=none;strokeWidth=1;fillColor=#87BA6A;" parent="Jfn-Ve2mknfnSqzE856o-58" vertex="1">
          <mxGeometry x="15" y="95" width="35" height="20" as="geometry" />
        </mxCell>
        <mxCell id="Jfn-Ve2mknfnSqzE856o-64" value="&lt;font style=&quot;font-size: 12px;&quot;&gt;App Support - Chris Dowds&lt;/font&gt;" style="text;html=1;strokeColor=none;fillColor=none;align=left;verticalAlign=middle;whiteSpace=wrap;rounded=0;shadow=0;dashed=1;fontStyle=1;fontSize=12;" parent="Jfn-Ve2mknfnSqzE856o-58" vertex="1">
          <mxGeometry x="60" y="95" width="160" height="20" as="geometry" />
        </mxCell>
        <mxCell id="Jfn-Ve2mknfnSqzE856o-65" value="" style="whiteSpace=wrap;html=1;shadow=0;strokeColor=none;fillColor=#FFCC99;dashed=1;verticalAlign=top;" parent="Jfn-Ve2mknfnSqzE856o-58" vertex="1">
          <mxGeometry x="15" y="126" width="35" height="20" as="geometry" />
        </mxCell>
        <mxCell id="Jfn-Ve2mknfnSqzE856o-66" value="&lt;font style=&quot;font-size: 12px;&quot;&gt;Development - Sophie Tudor&lt;/font&gt;" style="text;html=1;strokeColor=none;fillColor=none;align=left;verticalAlign=middle;whiteSpace=wrap;rounded=0;shadow=0;dashed=1;fontStyle=1;fontSize=12;" parent="Jfn-Ve2mknfnSqzE856o-58" vertex="1">
          <mxGeometry x="60" y="126" width="170" height="20" as="geometry" />
        </mxCell>
        <mxCell id="Jfn-Ve2mknfnSqzE856o-67" value="" style="whiteSpace=wrap;html=1;shadow=0;strokeColor=none;fillColor=#B3B3B3;dashed=1;verticalAlign=top;" parent="Jfn-Ve2mknfnSqzE856o-58" vertex="1">
          <mxGeometry x="15" y="156" width="35" height="20" as="geometry" />
        </mxCell>
        <mxCell id="Jfn-Ve2mknfnSqzE856o-68" value="&lt;font style=&quot;font-size: 12px&quot;&gt;Linux &amp;amp; DB Support - Chris Raward&lt;/font&gt;" style="text;html=1;strokeColor=none;fillColor=none;align=left;verticalAlign=middle;whiteSpace=wrap;rounded=0;shadow=0;dashed=1;fontSize=12;fontStyle=1" parent="Jfn-Ve2mknfnSqzE856o-58" vertex="1">
          <mxGeometry x="60" y="156" width="180" height="20" as="geometry" />
        </mxCell>
        <mxCell id="Jfn-Ve2mknfnSqzE856o-69" value="" style="whiteSpace=wrap;html=1;shadow=0;strokeColor=none;fillColor=#612744;verticalAlign=middle;rounded=0;strokeWidth=1;" parent="Jfn-Ve2mknfnSqzE856o-58" vertex="1">
          <mxGeometry x="15" y="186" width="35" height="20" as="geometry" />
        </mxCell>
        <mxCell id="Jfn-Ve2mknfnSqzE856o-70" value="&lt;font style=&quot;font-size: 12px;&quot;&gt;External provider&lt;/font&gt;" style="text;html=1;strokeColor=none;fillColor=none;align=left;verticalAlign=middle;whiteSpace=wrap;rounded=0;shadow=0;dashed=1;fontSize=12;fontStyle=1" parent="Jfn-Ve2mknfnSqzE856o-58" vertex="1">
          <mxGeometry x="60" y="186" width="170" height="20" as="geometry" />
        </mxCell>
        <mxCell id="Jfn-Ve2mknfnSqzE856o-71" value="&lt;font color=&quot;#ffffff&quot;&gt;14e&lt;/font&gt;" style="ellipse;whiteSpace=wrap;html=1;aspect=fixed;shadow=0;strokeColor=none;strokeWidth=1;fillColor=#33001A;" parent="Jfn-Ve2mknfnSqzE856o-1" vertex="1">
          <mxGeometry x="-145" y="250" width="20" height="20" as="geometry" />
        </mxCell>
        <mxCell id="Jfn-Ve2mknfnSqzE856o-72" value="&lt;font color=&quot;#ffffff&quot;&gt;14f&lt;/font&gt;" style="ellipse;whiteSpace=wrap;html=1;aspect=fixed;shadow=0;strokeColor=none;strokeWidth=1;fillColor=#33001A;" parent="Jfn-Ve2mknfnSqzE856o-1" vertex="1">
          <mxGeometry x="-139" y="353" width="20" height="20" as="geometry" />
        </mxCell>
        <mxCell id="Jfn-Ve2mknfnSqzE856o-73" value="" style="rounded=1;whiteSpace=wrap;html=1;shadow=0;strokeColor=none;strokeWidth=1;fillColor=none;" parent="Jfn-Ve2mknfnSqzE856o-1" vertex="1">
          <mxGeometry x="-1150" y="-60" width="80" height="660" as="geometry" />
        </mxCell>
        <mxCell id="Jfn-Ve2mknfnSqzE856o-74" value="" style="rounded=0;whiteSpace=wrap;html=1;shadow=0;strokeColor=none;strokeWidth=1;fillColor=none;" parent="Jfn-Ve2mknfnSqzE856o-1" vertex="1">
          <mxGeometry x="-1050" y="-290" width="700" height="70" as="geometry" />
        </mxCell>
        <mxCell id="Jfn-Ve2mknfnSqzE856o-75" value="" style="rounded=1;whiteSpace=wrap;html=1;shadow=0;strokeColor=none;strokeWidth=1;fillColor=none;" parent="Jfn-Ve2mknfnSqzE856o-1" vertex="1">
          <mxGeometry x="-230" y="780" width="340" height="60" as="geometry" />
        </mxCell>
        <mxCell id="Jfn-Ve2mknfnSqzE856o-76" value="" style="rounded=1;whiteSpace=wrap;html=1;shadow=0;strokeColor=none;strokeWidth=1;fillColor=none;" parent="Jfn-Ve2mknfnSqzE856o-1" vertex="1">
          <mxGeometry x="190" y="190" width="120" height="230" as="geometry" />
        </mxCell>
        <mxCell id="Jfn-Ve2mknfnSqzE856o-77" style="edgeStyle=orthogonalEdgeStyle;rounded=0;orthogonalLoop=1;jettySize=auto;html=1;endArrow=none;endFill=0;dashed=1;jumpStyle=gap;entryX=1;entryY=0.5;entryDx=0;entryDy=0;entryPerimeter=0;" parent="Jfn-Ve2mknfnSqzE856o-1" target="Jfn-Ve2mknfnSqzE856o-78" edge="1">
          <mxGeometry relative="1" as="geometry">
            <mxPoint y="212" as="sourcePoint" />
            <mxPoint x="-780" y="-140" as="targetPoint" />
            <Array as="points">
              <mxPoint y="212" />
              <mxPoint y="-171" />
            </Array>
          </mxGeometry>
        </mxCell>
        <mxCell id="Jfn-Ve2mknfnSqzE856o-78" value="&lt;b&gt;OTP&lt;/b&gt;" style="verticalLabelPosition=bottom;html=1;verticalAlign=top;align=center;strokeColor=none;fillColor=#00BEF2;shape=mxgraph.azure.mobile;pointerEvents=1;" parent="Jfn-Ve2mknfnSqzE856o-1" vertex="1">
          <mxGeometry x="-450" y="-196" width="35" height="50" as="geometry" />
        </mxCell>
        <mxCell id="Jfn-Ve2mknfnSqzE856o-79" style="edgeStyle=orthogonalEdgeStyle;rounded=0;orthogonalLoop=1;jettySize=auto;html=1;exitX=0;exitY=0.5;exitDx=0;exitDy=0;endArrow=none;endFill=0;dashed=1;jumpStyle=gap;exitPerimeter=0;" parent="Jfn-Ve2mknfnSqzE856o-1" source="Jfn-Ve2mknfnSqzE856o-78" edge="1">
          <mxGeometry relative="1" as="geometry">
            <mxPoint x="-25" y="222" as="sourcePoint" />
            <mxPoint x="-825" y="-120" as="targetPoint" />
            <Array as="points">
              <mxPoint x="-825" y="-171" />
              <mxPoint x="-825" y="-120" />
            </Array>
          </mxGeometry>
        </mxCell>
        <mxCell id="Jfn-Ve2mknfnSqzE856o-80" value="&lt;font color=&quot;#ffffff&quot;&gt;15&lt;/font&gt;" style="ellipse;whiteSpace=wrap;html=1;aspect=fixed;shadow=0;strokeColor=none;strokeWidth=1;fillColor=#33001A;" parent="Jfn-Ve2mknfnSqzE856o-1" vertex="1">
          <mxGeometry x="-390" y="-166" width="20" height="20" as="geometry" />
        </mxCell>
        <mxCell id="Jfn-Ve2mknfnSqzE856o-81" style="edgeStyle=orthogonalEdgeStyle;rounded=0;jumpStyle=gap;orthogonalLoop=1;jettySize=auto;html=1;entryX=0;entryY=0.5;entryDx=0;entryDy=0;endArrow=classic;endFill=1;strokeColor=#808080;strokeWidth=2;endSize=4;startArrow=none;startSize=4;startFill=0;" parent="Jfn-Ve2mknfnSqzE856o-1" target="Jfn-Ve2mknfnSqzE856o-52" edge="1">
          <mxGeometry relative="1" as="geometry">
            <mxPoint x="-620" y="380" as="sourcePoint" />
            <Array as="points">
              <mxPoint x="-620" y="380" />
              <mxPoint x="-620" y="400" />
            </Array>
          </mxGeometry>
        </mxCell>
        <mxCell id="Jfn-Ve2mknfnSqzE856o-82" value="&lt;b&gt;&lt;font style=&quot;font-size: 14px&quot; color=&quot;#4a1e34&quot;&gt;Registration , Migration , Login , Reset Password ,&amp;nbsp; Auth in OLS , Payment&amp;nbsp;&amp;nbsp;&lt;/font&gt;&lt;/b&gt;" style="text;html=1;strokeColor=none;fillColor=none;align=center;verticalAlign=middle;whiteSpace=wrap;rounded=0;" parent="Jfn-Ve2mknfnSqzE856o-1" vertex="1">
          <mxGeometry x="-897" y="-250" width="547" height="20" as="geometry" />
        </mxCell>
        <mxCell id="Jfn-Ve2mknfnSqzE856o-83" style="edgeStyle=orthogonalEdgeStyle;rounded=0;orthogonalLoop=1;jettySize=auto;html=1;exitX=0;exitY=0.25;exitDx=0;exitDy=0;endArrow=none;endFill=0;dashed=1;jumpStyle=gap;entryX=1;entryY=0.5;entryDx=0;entryDy=0;" parent="Jfn-Ve2mknfnSqzE856o-1" source="Jfn-Ve2mknfnSqzE856o-51" target="Jfn-Ve2mknfnSqzE856o-53" edge="1">
          <mxGeometry relative="1" as="geometry">
            <mxPoint x="-440" y="-161" as="sourcePoint" />
            <mxPoint x="-785" y="-110" as="targetPoint" />
            <Array as="points">
              <mxPoint x="-160" y="315" />
              <mxPoint x="-160" y="-210" />
              <mxPoint x="-730" y="-210" />
              <mxPoint x="-730" y="-100" />
            </Array>
          </mxGeometry>
        </mxCell>
        <mxCell id="Jfn-Ve2mknfnSqzE856o-84" value="&lt;span style=&quot;font-size: 11.0pt ; font-family: &amp;#34;calibri&amp;#34; , sans-serif ; color: #1f497d&quot;&gt;behavioSec&amp;nbsp;&lt;/span&gt;" style="edgeLabel;html=1;align=center;verticalAlign=middle;resizable=0;points=[];" parent="Jfn-Ve2mknfnSqzE856o-83" vertex="1" connectable="0">
          <mxGeometry x="0.6641" y="-2" relative="1" as="geometry">
            <mxPoint as="offset" />
          </mxGeometry>
        </mxCell>
        <mxCell id="cjAKysGyEAJSmZqAiXZl-0" value="&lt;b&gt;&lt;font color=&quot;#000099&quot;&gt;TPP&lt;/font&gt;&lt;/b&gt;" style="rounded=0;whiteSpace=wrap;html=1;shadow=0;strokeColor=#000099;strokeWidth=1;fillColor=none;" parent="Jfn-Ve2mknfnSqzE856o-1" vertex="1">
          <mxGeometry x="-600" y="-120" width="120" height="40" as="geometry" />
        </mxCell>
        <mxCell id="cjAKysGyEAJSmZqAiXZl-3" style="edgeStyle=orthogonalEdgeStyle;rounded=0;orthogonalLoop=1;jettySize=auto;html=1;entryX=0.5;entryY=1;entryDx=0;entryDy=0;startArrow=none;startFill=0;endArrow=classic;endFill=1;strokeColor=#808080;strokeWidth=2;endSize=4;startSize=4;" parent="Jfn-Ve2mknfnSqzE856o-1" target="cjAKysGyEAJSmZqAiXZl-0" edge="1">
          <mxGeometry relative="1" as="geometry">
            <mxPoint x="-540" y="40" as="sourcePoint" />
            <Array as="points">
              <mxPoint x="-540" y="40" />
            </Array>
          </mxGeometry>
        </mxCell>
        <mxCell id="cjAKysGyEAJSmZqAiXZl-4" value="&lt;font color=&quot;#ffffff&quot;&gt;22&lt;/font&gt;" style="ellipse;whiteSpace=wrap;html=1;aspect=fixed;shadow=0;strokeColor=none;strokeWidth=1;fillColor=#33001A;" parent="Jfn-Ve2mknfnSqzE856o-1" vertex="1">
          <mxGeometry x="-567" y="-73" width="20" height="20" as="geometry" />
        </mxCell>
      </root>
    </mxGraphModel>
  </diagram>
</mxfile>
